<svg width="80" height="19" viewBox="0 0 80 19" fill="none" xmlns="http://www.w3.org/2000/svg">
<g clip-path="url(#clip0_320_1275)">
<path d="M21.4622 14.424V3.0874H22.6693V14.424H21.4622ZM22.2553 4.23061V3.0874H28.6363V4.23061H22.2553ZM22.2553 9.17323V8.03002H28.3557V9.17323H22.2553Z" fill="white"/>
<path d="M30.2236 14.4237V3.08716H31.381V14.4237H30.2236Z" fill="white"/>
<path d="M34.5568 18.1564L36.0336 14.4156H35.7749L32.8123 6.12549H33.9746L36.4685 13.2662L39.0838 6.12549H40.2462L35.6853 18.1564H34.5548H34.5568Z" fill="white"/>
<path d="M52.3484 6.12549L49.8625 14.4238H48.514L46.5764 8.13355L44.6388 14.4238H43.2993L40.8044 6.12549H41.9668L44.0009 13.2159L46.1157 6.12549H47.0362L49.143 13.2159L51.185 6.12549H52.3474H52.3484Z" fill="white"/>
<path d="M54.8184 3.08721V7.3139C55.7469 6.63085 56.7799 6.1255 57.7571 6.1255C59.1294 6.1255 59.9126 6.75822 59.9126 8.24142V14.4238H58.807V8.54134C58.807 7.5748 58.388 7.21633 57.4516 7.21633C56.7172 7.21633 55.7319 7.6128 54.8522 8.28764V14.4228H53.7466V3.08618H54.8204L54.8184 3.08721Z" fill="white"/>
<path d="M65.3005 14.3869C64.5501 14.3869 63.8804 14.2071 63.2892 13.8476C62.6981 13.4881 62.2304 12.9941 61.888 12.3644C61.5447 11.7358 61.3735 11.0271 61.3735 10.2413C61.3735 9.45558 61.5427 8.76636 61.8801 8.14289C62.2174 7.51941 62.6772 7.02844 63.2584 6.66791C63.8386 6.30841 64.4884 6.12866 65.2069 6.12866C65.8826 6.12866 66.4817 6.29198 67.0042 6.61758C67.5267 6.94319 67.9387 7.39616 68.2392 7.97444C68.5397 8.55272 68.691 9.21934 68.691 9.97121C68.691 10.0616 68.686 10.1653 68.6751 10.2835C68.6641 10.4016 68.6432 10.5392 68.6114 10.6964H62.1657V9.68566H68.0103L67.6142 10.0565C67.6242 9.47201 67.5326 8.96974 67.3366 8.54861C67.1415 8.12748 66.8619 7.80188 66.4977 7.57077C66.1334 7.34069 65.6926 7.22565 65.1751 7.22565C64.6576 7.22565 64.167 7.34993 63.7659 7.59645C63.3649 7.84399 63.0504 8.18911 62.8235 8.63284C62.5966 9.07656 62.4831 9.60143 62.4831 10.2085C62.4831 10.8155 62.6016 11.3486 62.8394 11.8098C63.0773 12.271 63.4096 12.6305 63.8376 12.8883C64.2655 13.1471 64.7591 13.2755 65.3184 13.2755C65.7722 13.2755 66.1892 13.1882 66.5693 13.0146C66.9495 12.841 67.2709 12.5791 67.5356 12.2309L68.2482 13.0064C67.8998 13.445 67.4689 13.785 66.9574 14.0264C66.4449 14.2677 65.8936 14.3889 65.3025 14.3889L65.3005 14.3869Z" fill="white"/>
<path d="M73.821 14.3869C73.0706 14.3869 72.4009 14.2071 71.8097 13.8476C71.2186 13.4881 70.7509 12.9941 70.4085 12.3644C70.0652 11.7358 69.894 11.0271 69.894 10.2413C69.894 9.45558 70.0632 8.76636 70.4006 8.14289C70.7379 7.51941 71.1977 7.02844 71.7789 6.66791C72.3591 6.30841 73.0089 6.12866 73.7274 6.12866C74.4032 6.12866 75.0022 6.29198 75.5247 6.61758C76.0472 6.94319 76.4592 7.39616 76.7597 7.97444C77.0602 8.55272 77.2115 9.21934 77.2115 9.97121C77.2115 10.0616 77.2065 10.1653 77.1956 10.2835C77.1846 10.4016 77.1637 10.5392 77.1319 10.6964H70.6862V9.68566H76.5308L76.1347 10.0565C76.1447 9.47201 76.0531 8.96974 75.8571 8.54861C75.662 8.12748 75.3824 7.80188 75.0182 7.57077C74.6539 7.34069 74.2131 7.22565 73.6956 7.22565C73.1781 7.22565 72.6875 7.34993 72.2864 7.59645C71.8854 7.84399 71.5709 8.18911 71.344 8.63284C71.1171 9.07656 71.0037 9.60143 71.0037 10.2085C71.0037 10.8155 71.1221 11.3486 71.3599 11.8098C71.5978 12.271 71.9302 12.6305 72.3581 12.8883C72.786 13.1471 73.2796 13.2755 73.8389 13.2755C74.2927 13.2755 74.7097 13.1882 75.0898 13.0146C75.47 12.841 75.7914 12.5791 76.0561 12.2309L76.7687 13.0064C76.4204 13.445 75.9895 13.785 75.4779 14.0264C74.9654 14.2677 74.4141 14.3889 73.823 14.3889L73.821 14.3869Z" fill="white"/>
<path d="M79.9989 3.08716V14.4237H78.8933V3.08716H79.9989Z" fill="white"/>
</g>
<g clip-path="url(#clip1_320_1275)">
<path d="M16.0885 3.40381C12.7294 -0.855121 6.32696 -1.12803 2.60208 2.64663C2.05309 3.2283 1.92865 3.51244 1.57792 4.05397C-1.84257 8.93202 0.550536 15.8189 6.31403 17.596C10.5809 18.9402 15.2491 16.7655 16.6978 13.5324C18.599 10.5491 18.4363 6.27842 16.0885 3.40381ZM10.8287 1.10873C8.93017 0.787663 6.92011 1.14672 5.25162 2.10136C4.76514 2.39513 4.83032 2.33787 4.04322 2.93934C2.1005 4.46012 1.32633 7.18596 2.29338 9.50084C2.71467 10.5133 3.45329 11.3941 4.37832 11.9886C2.5552 11.0901 1.37266 9.2975 1.15016 7.3481C0.987997 5.48806 1.72877 3.59324 3.36117 2.27901C9.54003 -2.77509 18.8668 2.26403 17.7925 10.2848C18.2887 6.08631 15.4307 1.86484 10.8287 1.10873ZM12.6233 2.4861C10.0648 1.53575 7.07312 1.9526 4.8147 3.83939C2.03801 6.08792 2.1366 10.3463 5.02535 12.2593C4.88528 12.2106 4.74843 12.1571 4.61536 12.0988C1.2008 9.9803 1.14962 4.99041 4.76567 2.70175C6.29086 1.60906 8.55359 1.0001 10.7856 1.36933C15.5713 2.15647 18.4153 6.71239 17.5609 11.088C18.2047 7.55198 16.2436 3.81906 12.6233 2.4861ZM14.3332 4.20487C10.2598 1.44799 4.14989 3.66548 3.69519 8.39959C3.58097 9.85188 4.15797 11.3491 5.2333 12.3278C5.17889 12.3112 5.12448 12.2936 5.0706 12.2754C2.30038 10.3201 2.26213 6.24578 4.87989 4.09303C5.2694 3.73558 6.13516 3.17693 6.69169 2.94576C8.10374 2.30095 9.71997 2.10403 11.2479 2.38443C15.6214 3.17853 18.1966 7.36148 17.4062 11.3887C17.897 8.68213 16.749 5.79682 14.3332 4.20487ZM12.2795 4.17383C9.2254 3.43324 5.91751 5.03643 4.86049 7.77084C4.24902 9.36225 4.47314 11.0425 5.32489 12.3551C5.29957 12.3476 5.27425 12.3401 5.24893 12.3326C4.45159 11.5337 3.92685 10.4549 3.84388 9.28734C3.43713 4.47242 9.85681 1.49989 14.1921 4.41517C16.6757 6.01782 17.8119 9.01068 17.236 11.7831C17.8997 8.46808 15.818 4.99844 12.2795 4.17383ZM16.9359 13.0625C16.8745 13.1856 16.8099 13.3076 16.743 13.428C16.7883 13.321 16.8045 13.3146 16.9359 13.0625ZM16.826 13.2241C16.8352 13.1995 16.826 13.2241 16.9165 13.0411C16.8874 13.1021 16.8567 13.1631 16.826 13.2241ZM6.72401 15.8055C9.09664 16.278 11.6535 15.5594 13.4405 13.9444C13.8225 13.6019 14.1937 13.2118 14.4679 12.7955C16.0578 10.4651 15.5303 7.18382 13.1857 5.6106C13.3376 5.66518 13.4863 5.72511 13.6307 5.79093C16.7921 7.80294 17.5571 13.1021 12.3835 15.805C6.00156 18.9541 -0.801175 13.4403 0.502049 6.88202C-0.19778 10.8322 2.35587 14.975 6.72401 15.8055ZM12.9524 5.53248C15.0056 7.6087 14.7524 10.9419 12.5586 12.833C10.6094 14.6165 7.66466 15.1425 5.20798 14.1627C1.94373 12.9111 -0.0587843 9.19851 1.02355 5.58117C0.621112 7.01045 0.710543 8.58206 1.31879 9.94231C3.33531 14.5352 9.63269 15.2913 12.6674 11.279C13.9044 9.57308 14.0138 7.27961 12.8614 5.50519C12.8921 5.51428 12.9223 5.52284 12.9524 5.53248ZM0.667982 8.88012C1.58924 14.4522 8.23735 16.8308 12.5387 13.1524C14.9054 11.2094 15.2259 7.65793 12.9621 5.53515C13.0203 5.55335 13.0785 5.57261 13.1362 5.59241C15.3983 7.22075 15.8552 10.3035 14.3607 12.574C14.1102 12.9871 13.6485 13.4516 13.2854 13.7716C10.6639 16.0934 6.67283 16.323 3.80725 14.3008C1.0311 12.3712 -0.0544745 8.92239 0.854388 5.85087C0.575318 6.83172 0.506898 7.87465 0.667982 8.88012ZM12.5004 16.0292C17.7322 13.2295 16.9462 7.92762 13.8591 5.9017C16.8971 7.45084 18.0888 11.3753 15.9732 14.3559C15.4312 15.1243 14.2438 16.2042 12.8442 16.8704C6.04681 20.1046 -1.40565 13.9786 0.426625 6.71721C-1.24133 13.6046 6.04088 19.3131 12.5004 16.0292ZM7.18302 6.49835C5.5377 7.94421 4.80177 10.2543 5.36476 12.3658C4.499 8.12133 8.41459 4.25356 12.8059 5.4886H12.8064C12.8242 5.49395 12.8415 5.4993 12.8587 5.50465C13.9734 7.39144 13.7056 9.84332 12.2515 11.47C11.5334 12.262 10.6218 12.8876 9.60899 13.2455C4.69833 14.922 0.39861 10.8188 0.965369 6.35922C0.834454 8.31183 1.62156 10.3297 3.28089 11.5985C6.17395 13.8604 10.5319 12.9716 12.2747 9.74539C12.9831 8.46166 13.1803 6.89968 12.807 5.49074C12.8075 5.49448 12.8086 5.49769 12.8091 5.50144C13.6938 9.869 9.56374 13.6356 5.32759 12.3557C3.98988 10.0472 4.68594 7.26944 6.5931 5.74224C8.75292 3.92715 12.0371 3.76501 14.3645 5.36338C16.298 6.64122 17.3211 8.86246 17.2155 11.0741C17.1848 5.68712 10.9903 3.14 7.18302 6.49835ZM1.59839 4.06039C1.60217 4.05504 1.60594 4.04915 1.60971 4.0438C1.60755 4.04808 1.60109 4.05664 1.59839 4.06039Z" fill="white"/>
</g>
<defs>
<clipPath id="clip0_320_1275">
<rect width="79.999" height="18.1565" fill="white"/>
</clipPath>
<clipPath id="clip1_320_1275">
<rect width="18" height="18" fill="white"/>
</clipPath>
</defs>
</svg>
