<svg class="logo" xmlns="http://www.w3.org/2000/svg" xmlns:xlink="http://www.w3.org/1999/xlink" width="160" height="20" viewBox="0 0 160 20">
      <defs>
        <path id="a" d="M12.35 13.53H.023V.096h12.325v13.432z"></path>
        <path id="c" d="M24.664.123H.019v19.843h24.645V.123z"></path>
      </defs>
      <g fill="none" fill-rule="evenodd">
        <path fill="#fff" d="M149.337 14.716v.69c.138.415.276.691.69.83.55.138 1.102-.139 1.378-.83.138-.276.138-.552.138-.828.137-1.105.413-2.073.551-3.178.138-.414-.138-.69-.551-.829-.414-.138-.69 0-.965.276-.276.277-.551.691-.69 1.106-.275.829-.413 1.796-.55 2.763m10.061-13.401c.551.138.69.414.551 1.105l-2.205 11.053c-.138.69-.138 1.381-.276 1.934 0 .276.138.552.414.552h.138c.689.138.827.415.55 1.106-.137.414-.412.69-.688 1.105-.965.967-2.205 1.52-3.446 1.796-.965.138-2.067-.138-2.619-.967-.138-.277-.275-.277-.551-.138-.69.414-1.516.829-2.343.967-2.068.552-3.997-.415-4.962-2.487-.551-1.382-.551-2.901-.138-4.283.551-1.934 1.654-3.592 3.308-4.836 1.103-.828 2.343-1.381 3.722-1.243.55 0 1.102.276 1.654.553.413.276.413.138.55-.277.139-.552.552-1.796.552-2.348.138-.553 0-.691-.551-.967-.276-.139-.69-.277-.69-.691 0-.553.139-.967.414-1.382.138-.138.414-.276.69-.276h1.515c.965 0 2.206-.138 3.17-.276.276 0 .552-.139.828-.139.275.139.275.139.413.139M86.81 19.588h-3.106c-.81 0-1.351-.55-1.351-1.375 0-.687.135-1.236.675-1.511.81-.413 1.081-1.237 1.216-2.062C84.65 12.03 85.46 7.081 86 4.608c.135-.413 0-.688-.27-.962-.135-.138-.27-.275-.405-.275-.54-.413-.54-.825-.405-1.512.134-.687.54-1.1 1.215-1.1.81 0 5.403.138 7.7.138.945 0 4.997-.275 5.808-.275.675-.137.945.137.945.962 0 1.512-.27 3.298-.54 4.673-.135.824-.81 1.1-1.756.962-.54-.138-.81-.413-.946-.962 0-.275-.135-.55-.135-.687-.135-.688-.54-1.1-1.35-1.237h-2.162c-.54 0-.81.275-.945.824l-.54 2.749c-.135.412 0 .55.405.687.54.138.81 0 1.08-.55.135-.274.27-.55.406-.687a.74.74 0 0 1 .675-.412c.27 0 .675 0 .946.137.405.138.54.413.54.825-.135.825-.405 2.611-.54 3.436-.136.824-.406 1.649-.54 2.336-.136.55-.27.825-.811.825-.406 0-.81 0-1.08-.138a.758.758 0 0 1-.406-.687c0-.275.135-.687 0-.962 0-.412-.27-.55-.676-.55-.405 0-.54.138-.675.55-.135.687-.405 1.924-.54 2.611-.135.687 0 .962.675 1.237.27.138.676.275.946.55.54.275.675.824.54 1.374-.27 1.1-.675 1.512-1.756 1.512-1.08-.412-3.512-.412-4.592-.412"></path>
        <path fill="#fff" d="M138.611 19.412c-.273 0-.683-.136-1.093-.136-.956-.27-1.503-.945-1.23-2.027.274-1.351.547-2.703.683-4.19 0-.135.137-.27.137-.54 0-.676-.137-.946-.546-1.081-.547-.136-1.093 0-1.367.405a6.54 6.54 0 0 0-.546 1.487c-.273 1.622-.546 3.243-.956 4.865-.137.676-.41.946-.957.946h-4.235c-.683 0-.956-.27-.82-.946.41-2.433.957-5.136 1.503-7.569.137-.27.137-1.08-.137-1.35-.546-.542-.683-1.352-.273-2.164a.752.752 0 0 1 .683-.405c1.367-.27 3.143.135 4.509-.135.41-.135.82-.135 1.23 0 .546.27.683.54.546 1.081 0 .135-.137.406-.137.54 0 .136 0 .136.137.271h.273l.273-.27c1.23-.946 2.596-1.622 4.1-1.487 1.775.135 3.141 1.757 2.732 3.65-.274 1.486-.547 2.838-.683 4.324v.406c0 .27.136.405.41.27.41-.135.682.135.682.54 0 .812-.273 1.487-.82 2.028-1.229.946-2.458 1.487-4.098 1.487M111.176 16.703c0-1.924.678-4.122.95-5.908.135-.687 0-.825-.408-.962-.406-.275-.406-.687-.27-1.1.135-.823.677-1.51 1.49-1.51 1.356 0 2.846.137 4.473-.138h.542c.542 0 .813.412.677.962-.27 1.923-.677 3.71-.948 5.633-.136.412-.136.687-.136 1.1 0 .549.407.824.949.824.677-.138 1.084-.55 1.355-1.375.271-.961.407-2.335.542-3.297 0-.137 0-.275.136-.275.135-.412 0-.687-.271-.961-.407-.275-.543-.825-.407-1.374.136-.55.542-.825.949-.962.677-.137 2.033 0 2.71-.137.949-.138 1.626 0 2.575-.138.678-.137 1.084.275.949.962-.407 2.473-.813 4.809-1.22 7.282-.135.412 0 .55.407.687.542 0 .542.137.542.687-.136.55-.271.961-.542 1.236-1.085 1.374-2.982 2.061-4.744 2.061-.677 0-1.22-.275-1.626-.962-.136-.137-.136-.275-.271-.412-.271-.275-.407-.412-.813-.275-.271.138-.407.275-.678.412-1.084 1.1-2.981 1.374-4.472 1.1-.407-.138-.678-.138-1.084-.275-.814-.412-1.084-1.1-1.22-1.924-.136-.412-.136-.687-.136-.961M23.973 14.631v.68c0 .136 0 .272.135.408.135.68.81.952 1.214.272.135-.136.27-.408.405-.68.54-1.088.675-2.312.81-3.672 0-.544 0-1.088-.135-1.496-.135-.544-.54-.816-.945-.544-.135.136-.405.272-.54.408l-.404.816c-.27 1.224-.54 2.448-.54 3.808m1.754-8.16c3.238 0 5.802 2.04 6.476 5.168.54 2.584-.404 4.624-2.428 6.12-1.62 1.224-3.508 1.768-5.532 1.632-3.103-.272-5.532-2.448-5.937-5.44-.404-2.72.945-5.304 3.508-6.528 1.215-.68 2.429-.952 3.913-.952M102.208 14.631v.68c0 .136 0 .272.135.408.135.68.81.952 1.214.272.135-.136.27-.408.405-.68.54-1.088.675-2.312.81-3.672 0-.544 0-1.088-.135-1.496-.135-.544-.54-.68-.945-.544-.135.136-.405.272-.54.408l-.404.816c-.27 1.224-.405 2.448-.54 3.808m1.754-8.16c3.238 0 5.802 2.04 6.476 5.168.54 2.584-.404 4.624-2.428 6.12-1.62 1.224-3.508 1.768-5.532 1.632-3.103-.272-5.532-2.448-5.937-5.44-.404-2.72.945-5.304 3.508-6.528 1.215-.68 2.564-.952 3.913-.952M13.006.273c.812.137 1.083.41 1.083.957.136.82-.135 1.367-.677 1.778-.135.136-.27.136-.542.136-.542.137-.948.547-.948 1.23-.271 1.778-.948 5.059-1.22 6.699a21.382 21.382 0 0 1-.541 2.87c-.136.548.135.958.677.958.813.137 3.387-.957 3.929-3.281.27-1.094 1.49-1.367 2.303-.957.406.273.677.684.542 1.367-.136.82-.407 2.597-.678 3.418l-.541 2.734c0 .136-.136.136-.136.273-.27.683-.813.957-1.49.957-1.355 0-2.303-.137-3.523-.137-1.354 0-4.877-.137-6.367-.137H.813C.27 19.002 0 18.728 0 18.182c0-.274 0-.547.135-.82.136-.684.407-1.094 1.084-1.231.542-.137.813-.41.813-.957.542-2.87 1.355-7.929 1.897-10.8.135-.41 0-.683-.271-.956a2.125 2.125 0 0 1-.813-1.094C2.709 1.64 2.709.957 3.25.41L4.064 0H4.471c1.49 0 5.012 0 6.503.137.541 0 1.083-.137 1.49-.137.406.273.542.273.542.273M56.47 6.528c-.133.406-.133.677-.267 1.083-.133.676-.4.947-1.068.947h-.669c-.534 0-.801.27-.801.677-.134.677-.668 2.977-.802 3.654-.133.542-.133 1.083-.267 1.624v.406c0 .406.267.677.668.542.267 0 .4-.136.668-.136.267-.135.535.136.668.406a1.454 1.454 0 0 1-.267 1.625c-.4.406-.802.812-1.336 1.082-1.203.677-3.34 1.083-4.81.948-.935-.136-1.737-.406-2.138-1.354-.267-.541-.133-.947-.133-1.489.4-2.03 1.069-5.684 1.47-7.714.133-.406 0-.542-.401-.542-.668-.135-1.07-.676-.936-1.488.134-.813.668-1.354 1.47-1.625 1.603-.676 3.875-1.489 5.21-2.707.268-.27.669-.541 1.203-.676.668-.136.935.27.802.947-.134.677-.267 1.489-.401 2.166-.134.406 0 .541.4.541h.936c.267 0 .534.135.668.406.134.27.134.406.134.677"></path>
        <g transform="translate(32.353 6.47)">
          <mask id="b" fill="#fff">
              <use xlink:href="#a"></use>
          </mask>
          <path fill="#fff" d="M4.036 13.226c-.535-.135-1.337-.135-1.872.135-.134 0-.267.135-.401.135-.803.135-1.338-.135-1.471-.944-.268-.81-.268-1.62-.268-2.564s.401-1.484 1.07-1.754c.401-.135.803 0 1.07.405s.134.135.535.54c.268.27.669.54 1.07.54.535 0 .669-.54.535-.945C4.036 8.37 2.699 7.02 2.298 6.48.425 4.187 1.094 1.623 3.234.544 4.17.004 6.31.004 7.246.274c.803.135 1.873.27 2.675 0 .803-.27 1.338 0 1.605.675.402.81.669 1.754.803 2.563.133.675-.401 1.485-1.07 1.485-.402 0-.669-.136-.936-.27l-.803-.81c-.267-.27-.535-.54-.936-.674-.401-.135-.669.27-.535.674.134.27.134.54.401.675l1.471 1.484c.669.674 1.338 1.484 1.605 2.428.535 1.754 0 3.373-1.605 4.183-.802.54-4.012.944-5.885.54" mask="url(#b)"></path>
        </g>
        <g transform="translate(58.235)">
          <mask id="d" fill="#fff">
              <use xlink:href="#c"></use>
          </mask>
          <path fill="#fff" d="M17.78 7.289c.963-.414 2.478-1.103 2.478-2.343 0-.413-.276-.689-.688-.689-.414 0-.689.551-1.24.413-.688-.275-.688-.688-.688-1.24 0-1.653 2.065-2.618 3.442-2.618 2.34 0 3.58 1.93 3.58 4.272 0 3.031-2.203 5.236-4.544 5.65-.275.137-1.101.413-1.101.826 0 .414.963 1.103.963 2.205 0 2.205-1.79 3.996-3.58 4.823-1.79.965-3.992 1.378-6.057 1.378-4.819 0-10.326-2.894-10.326-8.406 0-3.445 1.514-4.96 4.406-5.925.55-.275.55-.275.55-.827 0-1.102.138-2.067.826-2.894C6.903.674 9.381.123 11.033.123c2.341 0 3.855 1.24 3.993 2.618.138 1.103-.688 1.792-1.377 1.792-.688 0-.688-.69-1.652-.69-.826 0-1.24.276-1.24 1.103 0 1.378 1.653 1.93 1.653 2.618 0 .69-1.101 1.24-2.203 1.103-.688-.138-.55-.138-.826-.276-.964-.413-2.891-.413-3.304 2.343-.276 1.929.964 4.823 5.507 4.547 1.652-.138 3.029-1.378 2.754-2.618-.413-1.654-4.13.964-4.544-1.516-.275-1.516 2.616-2.205 3.855-2.618l4.13-1.24z" mask="url(#d)"></path>
        </g>
      </g>
</svg>