<svg width="263" height="52" viewBox="0 0 263 52" fill="none" xmlns="http://www.w3.org/2000/svg">
<path fill-rule="evenodd" clip-rule="evenodd" d="M131.757 16.3437V12.3398C128.573 12.5513 125.887 13.7887 123.571 16.1043C121.016 18.6603 119.773 21.6668 119.773 25.2971V38.2879H123.76V25.3881C123.76 23.2362 124.466 21.1163 125.876 19.491C127.485 17.636 129.462 16.5796 131.757 16.3437Z" fill="white"/>
<path fill-rule="evenodd" clip-rule="evenodd" d="M204.011 38.2879V34.2825C201.716 34.0465 199.737 32.9894 198.128 31.1329C196.719 29.5067 196.013 27.3863 196.013 25.2344V16.3205H204.011V12.3329H196.013V4.33333H192.027V25.3269C192.027 28.9586 193.269 31.9658 195.825 34.5215C198.14 36.8377 200.826 38.0758 204.011 38.2879Z" fill="white"/>
<path fill-rule="evenodd" clip-rule="evenodd" d="M220.773 38.2879H220.807C224.422 38.2879 227.421 37.0523 229.974 34.5109C232.536 31.9619 233.786 28.9585 233.794 25.3283L233.824 12.3408L229.837 12.3317L229.808 25.3197C229.801 28.2469 228.551 30.7064 226.102 32.6008C224.624 33.7439 222.775 34.302 220.907 34.302H220.871C218.737 34.302 216.634 33.6026 215.02 32.2079C212.875 30.3562 211.79 28.0197 211.797 25.279L211.826 12.291L207.84 12.2814L207.81 25.2699C207.801 28.8995 209.037 31.9085 211.588 34.4692C214.137 37.0304 217.142 38.2797 220.773 38.2879Z" fill="white"/>
<path fill-rule="evenodd" clip-rule="evenodd" d="M84.9497 34.4943C87.5041 31.9379 88.7465 28.93 88.7465 25.2986C88.7465 21.6682 87.5041 18.6608 84.9497 16.1034C82.3953 13.547 79.3892 12.3042 75.7617 12.3042C72.1331 12.3042 69.1285 13.547 66.5736 16.1034C64.0193 18.6597 62.7769 21.6677 62.7769 25.2986L62.7771 46.2942H66.7616V25.4176C66.7616 23.1887 67.5198 20.998 69.0096 19.3407C70.8475 17.2959 73.1539 16.2691 75.8526 16.2925C78.2413 16.3134 80.5483 17.3116 82.2165 19.0233C84.1321 20.9893 84.9761 23.4399 84.716 26.2928C84.56 27.9989 83.8786 29.6333 82.7805 30.9478C80.9207 33.1747 78.5528 34.3062 75.7617 34.3062C74.4979 34.3062 73.315 34.0702 72.2256 33.6029V37.8369C73.3465 38.14 74.533 38.2935 75.7617 38.2935C79.3892 38.2935 82.3953 37.0512 84.9497 34.4943Z" fill="white"/>
<path fill-rule="evenodd" clip-rule="evenodd" d="M95.3446 22.9252L95.9701 21.5113C97.4385 18.193 100.724 16.049 104.341 16.049C107.958 16.049 111.243 18.193 112.71 21.5113L113.335 22.9252H95.3446ZM117.26 25.197C117.26 17.5891 110.645 11.4964 102.864 12.3638C96.9366 13.0248 92.1651 17.7951 91.504 23.72C90.6352 31.4998 96.73 38.1125 104.341 38.1125C108.985 38.1125 113.219 35.6292 115.514 31.6713H110.788C109.079 33.3757 106.754 34.345 104.341 34.345C100.187 34.345 96.5498 31.5344 95.4953 27.5099L95.1649 26.2481H117.207C117.242 25.8757 117.26 25.5313 117.26 25.197Z" fill="white"/>
<path fill-rule="evenodd" clip-rule="evenodd" d="M156.49 34.5068C159.043 31.9531 160.284 28.9483 160.284 25.3207C160.284 21.6941 159.043 18.6898 156.49 16.1351C153.936 13.5814 150.932 12.3398 147.307 12.3398C143.68 12.3398 140.677 13.5814 138.124 16.1351C135.571 18.6888 134.329 21.6936 134.329 25.3207V46.2944H138.312V25.4396C138.312 23.213 139.069 21.0245 140.558 19.369C142.395 17.3263 144.7 16.3007 147.397 16.324C149.785 16.3449 152.091 17.3421 153.758 19.052C155.673 21.0159 156.516 23.4639 156.256 26.3138C156.1 28.0181 155.419 29.6509 154.322 30.964C152.463 33.1885 150.096 34.3188 147.307 34.3188C146.044 34.3188 144.861 34.0831 143.773 33.6163V37.8459C144.893 38.1486 146.079 38.302 147.307 38.302C150.932 38.302 153.936 37.061 156.49 34.5068Z" fill="white"/>
<path fill-rule="evenodd" clip-rule="evenodd" d="M166.898 22.9252L167.524 21.5113C168.99 18.193 172.275 16.049 175.893 16.049C179.509 16.049 182.794 18.193 184.263 21.5113L184.889 22.9252H166.898ZM188.812 25.197C188.812 17.5891 182.198 11.4964 174.416 12.3638C168.489 13.0248 163.718 17.7951 163.056 23.72C162.188 31.4998 168.282 38.1125 175.893 38.1125C180.538 38.1125 184.771 35.6292 187.067 31.6713H182.341C180.632 33.3757 178.307 34.345 175.893 34.345C171.74 34.345 168.103 31.5344 167.048 27.5099L166.718 26.2481H188.76C188.794 25.8767 188.812 25.5323 188.812 25.197Z" fill="white"/>
<path fill-rule="evenodd" clip-rule="evenodd" d="M262.272 38.3316L262.302 25.3499C262.309 21.7218 261.075 18.7145 258.526 16.1557C255.976 13.5959 252.974 12.3478 249.346 12.3392H249.309C245.698 12.3392 242.702 13.5741 240.15 16.1141C237.589 18.6632 236.34 21.6644 236.332 25.2909C236.324 28.9185 237.558 31.9258 240.108 34.4851C242.656 37.0448 245.659 38.293 249.287 38.3011H249.32C250.536 38.3011 251.713 38.1507 252.825 37.8531L252.834 33.624C251.743 34.0883 250.566 34.2976 249.296 34.318C246.887 34.3124 244.795 33.4655 243.074 31.8003C241.345 30.128 240.336 27.807 240.317 25.4027C240.294 22.5092 241.478 20.0678 243.831 18.1724C245.353 16.9461 247.275 16.3228 249.23 16.3228H249.248C251.379 16.3228 253.479 17.0213 255.093 18.4137C257.237 20.2628 258.323 22.5991 258.317 25.3402L258.287 38.3225L262.272 38.3316Z" fill="white"/>
<path fill-rule="evenodd" clip-rule="evenodd" d="M18.1625 17.0193C18.1625 7.61972 25.7821 0 35.1821 0C44.5813 0 52.2012 7.61997 52.2012 17.0193C52.2012 26.4189 44.5814 34.039 35.1821 34.039H30.4065C29.8294 34.039 29.3615 33.5731 29.3615 32.9984V26.5637C29.3615 25.9889 29.8293 25.523 30.4065 25.523H35.1821C39.8781 25.523 43.6853 21.7157 43.6853 17.0193C43.6853 12.3232 39.8781 8.51599 35.1821 8.51599C30.4853 8.51599 26.6784 12.323 26.6784 17.0193L26.6719 34.2483L26.6784 38.7615C26.6769 46.0736 20.7518 51.9985 13.4433 52C6.13186 52.0022 0.203368 46.0764 0.201172 38.7643C0.199708 31.4528 6.12523 25.5245 13.4375 25.523H14.42C14.9971 25.523 15.465 25.9889 15.465 26.5637V32.9984C15.465 33.5731 14.9971 34.039 14.42 34.039H13.4384C10.8303 34.0395 8.71656 36.1542 8.71708 38.7622C8.71786 41.3708 10.8328 43.4848 13.4412 43.484C16.0483 43.4835 18.162 41.3699 18.1625 38.7635L18.1546 25.523L18.1625 17.0193Z" fill="white"/>
</svg>
