<?xml version="1.0" encoding="UTF-8"?>
<svg id="Layer_1" data-name="Layer 1" xmlns="http://www.w3.org/2000/svg" viewBox="0 0 2463.96 475.21">
  <defs>
    <style>
      .cls-1 {
        fill: #fff;
        stroke-width: 0px;
      }
    </style>
  </defs>
  <path class="cls-1" d="m385.94,51.83c.58.47,1.17.94,1.77,1.42,14.47,11.72,27.99,24.87,39,39.91,1.21,1.65,2.45,3.28,3.7,4.91,7.5,9.99,13.62,20.78,19.53,31.76.38.7.76,1.4,1.15,2.12,17.12,32.16,24.31,69.62,24.23,105.76q0,1.34,0,2.71c-.04,15.45-1.16,30.27-4.37,45.42-.22,1.04-.44,2.08-.67,3.15-8.91,40.81-28.19,78.86-56.92,109.28-2.07,2.2-4.04,4.45-5.98,6.76-16.03,18.37-38,32.57-59.44,43.81-.76.4-1.53.8-2.32,1.22-33.4,17.3-69.55,25.24-106.99,25.16-.97,0-1.93,0-2.93,0-15.9-.04-31.18-.97-46.76-4.37-.99-.21-1.97-.43-2.99-.65-20.27-4.56-39.73-11.46-58.01-21.35q-1.09-.58-2.2-1.16c-17.43-9.22-32.87-20.38-47.43-33.7-2.06-1.87-4.17-3.66-6.3-5.45-10.86-9.53-19.57-21.07-28.06-32.69-.44-.59-.87-1.18-1.32-1.79-22.58-30.87-35.78-68.48-40.68-106.21-.09-.68-.19-1.35-.29-2.05-7.44-61.49,10.46-123.81,47.83-172.83,12.2-15.48,25.71-30.19,41.46-42.12.53-.41,1.06-.82,1.6-1.24,22.39-17.35,47.39-30.29,74.4-38.76.74-.24,1.49-.47,2.25-.71,73.21-22.84,157.22-6.2,216.75,41.71Zm-191-7c1.52,12,4.32,23.68,7.05,35.44.52,2.27,1.04,4.53,1.56,6.8,1.12,4.88,2.24,9.76,3.37,14.64,1.8,7.78,3.59,15.57,5.37,23.36.15.66.3,1.32.46,2.01.62,2.71,1.24,5.42,1.87,8.13.8,3.46,1.59,6.93,2.39,10.39,5.06,22.01,10.08,44.02,15.08,66.04.17.74.34,1.48.51,2.24,2.97,13.08,5.94,26.16,8.91,39.24.63,2.76,1.25,5.53,1.88,8.29.31,1.36.62,2.71.92,4.07,2.44,10.74,4.88,21.47,7.32,32.21,1.49,6.53,2.96,13.05,4.43,19.58.84,3.74,1.69,7.47,2.54,11.2.38,1.68.76,3.37,1.14,5.05.5,2.25,1.01,4.49,1.53,6.74.28,1.23.56,2.47.84,3.74q.62,2.94,2.83,4.84c3.22-14.83,6.44-29.67,9.65-44.5,1.49-6.89,2.99-13.79,4.49-20.68,1.3-6.01,2.61-12.01,3.91-18.02.72-3.31,1.43-6.61,2.15-9.92,2.98-13.72,5.94-27.45,8.82-41.19.23-1.11.47-2.22.71-3.37,1.09-5.18,2.17-10.36,3.24-15.54.38-1.8.76-3.61,1.13-5.41.17-.81.33-1.63.5-2.46.74-3.49,1.4-5.89,3.4-8.9q2.15-.38,4.87-.4c1.03-.01,2.06-.03,3.12-.04,1.13,0,2.27,0,3.44,0,1.19-.01,2.38-.02,3.61-.03,3.27-.03,6.54-.04,9.81-.04,3.41,0,6.83-.04,10.24-.06,6.47-.04,12.93-.07,19.4-.1,7.36-.03,14.72-.07,22.08-.12,15.14-.09,30.29-.16,45.43-.22.93-3.3.98-4.88-.3-8.1-.31-.79-.62-1.58-.95-2.4-.35-.85-.7-1.69-1.07-2.57-.36-.88-.72-1.77-1.1-2.68-11.59-27.64-29.18-54.19-52.59-73.26-1.05-.89-2.11-1.78-3.16-2.67-9.7-8.08-19.99-14.9-30.84-21.33-.65-.39-1.3-.77-1.97-1.17-38.36-22.52-95.27-33.37-138.03-18.83Zm-96,52c-.68.64-1.35,1.27-2.05,1.93-5.13,4.95-9.54,10.49-13.95,16.07q-.76.95-1.53,1.92-21.9,27.32-31.47,60.08c4.89.12,9.78.21,14.68.27,1.66.03,3.33.06,4.99.1,2.4.06,4.79.09,7.19.11.74.03,1.48.05,2.24.08,3.79,0,5.66-.39,8.71-2.7,2.3-3.01,3.88-5.84,5.44-9.28.29-.63.58-1.26.88-1.91.63-1.37,1.26-2.75,1.88-4.13,1.72-3.81,3.49-7.6,5.25-11.39.37-.81.75-1.62,1.14-2.46,4.66-10.04,9.54-19.96,14.41-29.89.9-1.85,1.81-3.7,2.71-5.54,1.72-3.51,3.44-7.02,5.15-10.53,3.03-6.2,6.07-12.4,9.07-18.61.44-.89.87-1.78,1.32-2.7,1.82-3.79,3.42-7.2,3.93-11.43-12.64,0-31.51,21.88-40,30Zm67,5c-.27.57-.54,1.13-.82,1.71-5.32,11.14-10.65,22.28-15.99,33.41-.49,1.03-.99,2.06-1.5,3.12-2.69,5.61-5.39,11.21-8.11,16.8-1.17,2.42-2.35,4.85-3.52,7.27-.29.6-.58,1.2-.88,1.81-3.33,6.88-6.62,13.78-9.82,20.73q-.44.96-.89,1.94c-1.41,3.06-2.81,6.13-4.21,9.2q-6.46,14.11-10.26,16.01c-2.15.12-4.31.18-6.47.21q-1,.01-2.01.03c-2.2.03-4.39.06-6.59.08-1.52.02-3.04.04-4.57.06-4.01.06-8.02.1-12.02.15-4.09.05-8.18.11-12.27.16-8.02.11-16.05.21-24.07.31-1.87,4.34-2.32,8.05-2.34,12.74,0,.75-.02,1.5-.03,2.27-.02,2.43-.02,4.87-.01,7.3,0,.83,0,1.67,0,2.52.05,14.06,1.09,27.45,4.37,41.16.24,1.01.47,2.02.72,3.06,6.38,26.54,17.42,51.38,34.28,72.94q1.03,1.31,2.07,2.66c33.73,42.15,80.78,70.03,134.78,76.03,8.74.88,17.36,1.44,26.14,1.32,1.11-4.11.81-6.97-.15-11.09-.28-1.24-.57-2.48-.86-3.76-.33-1.38-.66-2.77-.99-4.15-.35-1.49-.69-2.98-1.03-4.47-.76-3.28-1.52-6.55-2.29-9.82-1.27-5.4-2.52-10.8-3.77-16.21-.22-.95-.44-1.89-.66-2.87-.46-1.97-.91-3.94-1.37-5.91-.72-3.11-1.44-6.21-2.16-9.32-3.99-17.23-7.93-34.48-11.85-51.73-.15-.68-.31-1.35-.47-2.05-1.74-7.67-3.48-15.33-5.22-23-1.93-8.51-3.86-17.01-5.79-25.52-.16-.7-.32-1.4-.48-2.13-.8-3.54-1.61-7.08-2.41-10.61-.8-3.52-1.6-7.04-2.4-10.56-6.17-27.16-12.35-54.31-18.53-81.46-.74-3.25-1.48-6.49-2.22-9.74-1.15-5.03-2.29-10.07-3.44-15.1-.41-1.81-.83-3.62-1.24-5.44-.19-.84-.38-1.69-.58-2.56-.19-.82-.37-1.63-.56-2.47-.35-1.55-.71-3.11-1.07-4.66-.79-3.45-1.57-6.91-2.31-10.38q-.39-1.78-.78-3.6c-.22-1.03-.43-2.05-.66-3.11q-.35-1.13-.7-2.28-.99-.49-2-1Zm167.05,115.45c-1.58,3.83-2.43,7.71-3.26,11.76q-.3,1.41-.61,2.85c-.67,3.15-1.33,6.3-1.98,9.45-.48,2.25-.95,4.49-1.43,6.74-1.02,4.81-2.04,9.63-3.05,14.45-2.4,11.42-4.83,22.83-7.25,34.25-.69,3.26-1.38,6.51-2.07,9.77-3.82,18.02-7.7,36.02-11.64,54.01-.25,1.12-.49,2.25-.75,3.41-2.35,10.73-4.71,21.46-7.07,32.18-.86,3.9-1.71,7.8-2.57,11.7-.59,2.66-1.17,5.32-1.76,7.98-.35,1.58-.69,3.16-1.04,4.74q-.24,1.07-.48,2.17-.79,3.52-1.07,7.1c6.93-1.18,13.33-2.96,19.88-5.5q1.35-.52,2.73-1.06c15.45-6.11,29.98-13.62,43.4-23.44.58-.42,1.16-.85,1.75-1.28,41.55-30.78,70.71-76.44,79.25-127.72.18-1.06.35-2.12.54-3.21,1.42-9.4,1.78-18.59,1.73-28.09-.01-2.43,0-4.86.01-7.29,0-1.56,0-3.12,0-4.68q0-1.08.01-2.18c-.04-3.78-.46-6.27-2.28-9.56-12.86-.09-25.71-.16-38.57-.21-5.97-.02-11.94-.05-17.91-.09-5.76-.04-11.52-.07-17.27-.08-2.2,0-4.4-.02-6.6-.04-3.07-.03-6.15-.03-9.22-.03q-1.37-.02-2.77-.04-4.62-.06-8.61,1.95Z"/>
  <path class="cls-1" d="m1991.07,168.02c5.41,4.74,8.38,9.64,12.88,15.81.33-9.57.66-19.14,1-29h35c.07,26.33.12,52.66.16,78.99.02,12.23.04,24.46.07,36.69.03,10.67.05,21.34.06,32,0,5.64.01,11.28.03,16.92.02,5.33.03,10.66.02,15.98,0,1.94,0,3.87.02,5.81.19,33-4.59,68.39-27.99,93.42-22.23,21.23-53.04,27.41-82.81,27.44-.76,0-1.53,0-2.31,0-11.05-.02-21.51-.4-32.25-3.25-.67-.17-1.34-.33-2.03-.5-8.59-2.14-16.81-5.05-24.97-8.5-.78-.32-1.57-.64-2.38-.97-.72-.32-1.44-.64-2.19-.97-.64-.28-1.28-.55-1.94-.84q-1.5-1.22-2.34-3.44c-.2-3.59.69-6.03,1.94-9.4q.34-.92.68-1.86c.71-1.95,1.44-3.89,2.17-5.84.49-1.33.97-2.65,1.46-3.98,1.19-3.24,2.39-6.48,3.6-9.71.53.25,1.05.49,1.6.75q21.44,9.99,44.4,15.25c1.09.13,2.18.27,3.31.41,21.1,2,43.73-1.06,60.82-14.41,12.39-11.58,19.13-29.29,19.97-45.98.14-5.09.08-10.18.03-15.27-.01-1.54-.02-3.07-.03-4.61-.02-3.71-.06-7.43-.1-11.14-.72.81-1.44,1.62-2.18,2.45-14.7,16.4-33.46,27.38-55.99,28.67-26.1.89-49.06-5.38-68.83-23.12-7.41-7.2-12.98-15-18-24-.55-.97-1.09-1.93-1.65-2.93-15.48-29.08-15.81-65.44-6.75-96.57,8.25-26.94,24.46-49.09,49.55-62.61,30.5-15.54,69.34-14.48,95.97,8.3Zm-90.77,32.2c-15.22,18.14-21.59,43.37-20.35,66.61,1.99,20.89,9.06,43.58,25,58,15.05,11.31,30.75,14.98,49.31,12.57,14.43-3.1,27.3-11.62,35.5-23.88,7.64-12.9,10.49-25.04,10.52-39.91,0-1.15.01-2.29.02-3.47.01-2.42.01-4.83.01-7.25,0-3.65.04-7.29.08-10.94.1-21.18-1.98-38.88-17.16-54.89-10.85-10.54-24.13-16.21-39.29-16.59-16.78.46-32.3,7.39-43.65,19.76Z"/>
  <path class="cls-1" d="m1424.94,168.83c17.1,14.54,27.63,34.37,33,56,.3,1.2.6,2.41.91,3.65,4.53,20.8,4.05,45.7-.91,66.35-.17.71-.33,1.43-.5,2.17-2.66,11.05-6.96,20.94-12.5,30.83-.56,1-1.11,2-1.68,3.02-12.32,20.62-33.2,34.86-56.19,41.23-24.66,5.85-49.23,3.09-71.13-10.16-6.78-4.74-13.11-10.41-18-17.1,0,.56,0,1.12-.01,1.69-.08,13.6-.17,27.19-.28,40.79-.05,6.57-.1,13.15-.13,19.72-.04,6.34-.08,12.68-.14,19.02-.02,2.42-.03,4.85-.05,7.27-.02,3.39-.05,6.77-.08,10.16,0,1.01,0,2.02,0,3.06-.01.92-.02,1.84-.03,2.79q0,1.2-.02,2.43-.26,2.07-2.26,5.07c-2.83.28-5.43.37-8.25.33-.82,0-1.63,0-2.47,0-1.73,0-3.45-.02-5.18-.04-2.65-.03-5.3-.04-7.95-.05-1.67,0-3.35-.02-5.02-.03-.8,0-1.6,0-2.42-.01q-5.59-.07-6.7-1.19c-.1-1.61-.12-3.23-.12-4.84,0-1.05,0-2.11,0-3.19q0-1.76,0-3.55c0-1.23,0-2.47,0-3.74,0-3.44,0-6.88,0-10.32,0-3.7,0-7.41,0-11.11,0-6.42,0-12.85,0-19.27,0-9.29.01-18.58.01-27.86,0-15.07,0-30.14.02-45.2,0-14.64.02-29.28.02-43.92,0-.9,0-1.8,0-2.73,0-4.52,0-9.05,0-13.57.01-37.56.03-75.11.05-112.67h35q.44,13.06.57,17.14c.2,5.69.44,11.25,1.43,16.86.45-.59.9-1.19,1.36-1.8,14.62-18.84,32.5-31.56,56.23-35.73,26.52-3.3,52.32,1.26,73.41,18.53Zm-110,32c-.63.61-1.27,1.23-1.92,1.86-14.01,14.5-16.77,34.91-17.08,54.14-.02,1.02-.04,2.04-.06,3.09-.44,24.63.03,45.75,17.56,64.6q1.24,1.14,2.5,2.31.68.69,1.37,1.39c11.7,11.12,28.04,15.33,43.79,14.96,16.42-1.49,29.68-8.33,40.84-20.35,15.71-20.51,21.61-48.31,18.7-73.65-3.11-21.02-10.43-41.31-27.07-55.36-24.83-18.42-57.19-15.04-78.62,7.01Z"/>
  <path class="cls-1" d="m768.94,53.83h40c.33,42.9.66,85.8,1,130q3.96-4.95,8-10c14.18-15.25,34.15-23.15,54.69-24.32,19.24-.67,38.3,4.46,52.81,17.64,17.09,16.4,25.46,38.76,26.68,62.16.06,3.71.07,7.42.05,11.13,0,1.41,0,2.82,0,4.23,0,3.79-.01,7.57-.03,11.36-.01,3.97-.01,7.95-.02,11.92,0,7.5-.02,15.01-.04,22.51-.02,8.55-.03,17.1-.04,25.65-.02,17.57-.06,35.15-.1,52.72-5.54.02-11.07.04-16.61.05-1.88,0-3.77.01-5.65.02-2.7.01-5.41.02-8.11.02-.85,0-1.7.01-2.57.02-2.02,0-4.04-.05-6.06-.11-1.67-1.67-1.13-3.72-1.14-6.02,0-1.09-.01-2.17-.02-3.3,0-1.2,0-2.41,0-3.65,0-1.93-.02-3.87-.02-5.8,0-2.09-.01-4.18-.02-6.27-.01-4.37-.03-8.73-.05-13.09-.06-12.42-.12-24.83-.15-37.25-.02-6.85-.05-13.7-.09-20.55-.02-3.62-.04-7.24-.04-10.86q.24-35.56-16.25-66.15c-8.64-8.2-19.35-11.41-30.98-12.38-15.02.51-27.98,6.18-38.71,16.56-16.27,17.65-16.28,36.42-16.18,59.08.01,3.82,0,7.64-.03,11.46-.03,7.21-.03,14.43-.02,21.64.01,12.96-.01,25.91-.05,38.87-.01,4.54-.01,9.09,0,13.63,0,2.81,0,5.63,0,8.44,0,1.93,0,3.86.02,5.8q0,1.71-.01,3.46c0,1,0,1.99,0,3.02q-.25,2.36-2.25,4.36c-2.79.19-5.47.26-8.25.23-.82,0-1.63,0-2.47,0-1.73,0-3.45-.01-5.18-.02-2.65-.02-5.3-.02-7.95-.02-1.67,0-3.35-.01-5.02-.02-.8,0-1.6,0-2.42,0q-5.59-.05-6.7-1.16c-.1-1.68-.12-3.36-.12-5.04,0-1.1,0-2.2,0-3.33,0-1.22,0-2.45,0-3.71,0-1.29,0-2.57,0-3.9,0-3.59,0-7.18,0-10.77,0-3.86,0-7.73,0-11.59,0-6.7,0-13.4,0-20.1,0-9.69.01-19.38.01-29.06,0-15.72,0-31.43.02-47.15,0-15.27.02-30.54.02-45.81,0-.94,0-1.88,0-2.85,0-4.72,0-9.44,0-14.16.01-39.17.03-78.35.05-117.52Z"/>
  <path class="cls-1" d="m1773.63,174.02c21.38,18.29,32.15,46.19,34.31,73.81,1.62,35.24-4.79,67.14-28.44,94.19-16.93,18.23-38.06,28.16-62.56,31.81-.86.13-1.73.26-2.62.39-26.66,3.28-54.67-2.73-76.19-19.21-25.07-20-36.88-46.06-40.5-77.56-2.69-27.35,1.87-53.61,15.31-77.62.56-1,1.11-2,1.68-3.02,4.49-7.52,10.2-13.77,16.32-19.98.72-.73,1.44-1.46,2.18-2.22,37.67-35.82,102.07-32.06,140.51-.59Zm-115.53,26.19c-17.46,21.21-20.9,49.13-19.16,75.62,2.42,22.2,11.83,42.39,29,57,12.76,9.31,27.43,12.76,43,11,16.62-3.23,29.87-12.77,40.05-26.09,14.9-22.32,19.31-50.51,14.36-76.72-4.14-19.87-12.58-38.96-29.41-51.2-25.78-16.07-56.87-11.52-77.84,10.38Z"/>
  <path class="cls-1" d="m1175.75,174.74c20.34,18.05,31.03,45.41,33.2,72.09,1.85,34.66-4,67.38-27.38,94.12-20.47,22.05-46.75,32.68-76.62,33.88-27.6.49-53.72-7.87-73.95-26.99-13.4-13.01-22.41-28.63-27.8-46.51-.2-.65-.4-1.3-.6-1.97-3.39-11.86-4.06-23.83-4.02-36.09,0-.75,0-1.49,0-2.26.04-12.1.91-23.51,4.37-35.18q.32-1.11.65-2.24c7.54-25.27,24.07-47.99,47.35-60.87,9.66-5.08,19.28-8.67,30-10.89,1.06-.22,2.11-.45,3.2-.68,33.32-5.87,65.79,1.71,91.6,23.59Zm-115.45,24.52c-18.22,21.13-22.29,48.58-20.35,75.57,2.26,21.63,11.14,42.76,28,57,13.23,9.85,27.68,13.88,44,12,4.54-.92,8.71-2.26,13-4,.86-.33,1.72-.65,2.6-.99,15.24-6.63,26.74-21.89,33.12-36.72,10.36-26.65,10.32-56.79-.72-83.29-7.73-16.85-19.68-29.31-37.25-35.88-22.33-7.77-46.46-.86-62.4,16.31Z"/>
  <path class="cls-1" d="m2178.94,154.83c6.26-.28,12.52-.47,18.79-.6,2.13-.06,4.26-.13,6.38-.23q17.39-.76,22.63,2.66c2.18,2.92,3.63,5.88,5.2,9.17,1.78,2.97,3.68,5.87,5.55,8.79,1.04,1.65,2.07,3.31,3.1,4.96,3.49,5.52,7.12,10.93,10.79,16.33.63.93,1.26,1.85,1.91,2.81,2.58,3.8,5.17,7.6,7.77,11.4,1.93,2.82,3.85,5.65,5.76,8.48.59.86,1.17,1.71,1.78,2.59.54.8,1.08,1.6,1.64,2.42.47.7.95,1.39,1.44,2.11,1.37,2.29,2.33,4.6,3.26,7.11,2.22-2.07,3.78-4.09,5.29-6.72.44-.75.88-1.51,1.33-2.28.48-.82.95-1.65,1.45-2.5,5.07-8.61,10.48-16.96,16.06-25.25,5.66-8.42,11.25-16.86,16.54-25.53q.55-.83,1.12-1.67,1.35-2.16,2.48-5.13c1.88-3.88,3.38-6.18,6.74-8.92,7.23-2.03,15.09-1.12,22.5-.75,2.08.06,4.17.11,6.25.16,5.09.13,10.17.34,15.25.59-1.15,3.07-2.34,5.74-4.26,8.4-.45.63-.91,1.26-1.37,1.92-.49.68-.99,1.36-1.5,2.06-1.09,1.52-2.17,3.03-3.25,4.55q-.87,1.22-1.77,2.47c-3.34,4.7-6.63,9.43-9.92,14.17q-1.03,1.48-2.08,3c-4.23,6.09-8.44,12.19-12.63,18.31-4.05,5.9-8.13,11.77-12.22,17.64-1.37,1.97-2.73,3.93-4.1,5.9-2.43,3.49-4.86,6.97-7.3,10.45-.99,1.42-1.98,2.85-2.98,4.27-.45.63-.89,1.26-1.35,1.92-1.13,1.63-2.2,3.29-3.27,4.96-.48.71-.96,1.42-1.46,2.16-.77,4.05.82,5.75,3.07,9.07.57.8,1.14,1.61,1.73,2.44.58.85,1.17,1.7,1.77,2.58,1.93,2.8,3.88,5.59,5.83,8.38,1.34,1.95,2.68,3.89,4.02,5.84,2.04,2.97,4.08,5.94,6.13,8.91,6.13,8.89,12.08,17.89,17.98,26.93,1.83,2.81,3.67,5.62,5.51,8.42q.67,1.02,1.35,2.06c3.29,5.01,6.61,10,9.95,14.97.47.71.95,1.41,1.43,2.14,2.25,3.35,4.5,6.7,6.76,10.04.79,1.18,1.58,2.35,2.37,3.53.69,1.02,1.38,2.05,2.1,3.1q1.47,2.43,1.47,4.43c-6.17.15-12.35.26-18.52.33-2.1.03-4.2.07-6.3.12-3.02.07-6.04.11-9.06.13-.94.03-1.87.06-2.84.09-4.61,0-6.56-.03-10.07-3.22-.76-1.14-1.5-2.29-2.21-3.46-.87-1.26-1.74-2.52-2.61-3.77-.93-1.41-1.86-2.83-2.79-4.25-.5-.77-1.01-1.54-1.53-2.33-1.63-2.49-3.26-4.98-4.89-7.47-1.13-1.72-2.26-3.44-3.38-5.16-8.16-12.45-16.23-24.96-24.21-37.52-2.35-3.7-4.72-7.38-7.09-11.07-.69-1.07-1.38-2.15-2.09-3.25q-.7-1.08-1.41-2.18c-3.75,4.37-6.54,9.12-9.44,14.06-5.14,8.67-10.53,17.15-16.06,25.57-4.66,7.1-9.21,14.27-13.77,21.44-1.9,2.98-3.81,5.96-5.73,8.93-.36.55-.71,1.1-1.08,1.67-1.09,1.68-2.18,3.35-3.27,5.01-.65.99-1.3,1.99-1.97,3.01q-1.68,2.3-3.68,3.3c-1.36.09-2.72.12-4.08.11q-1.26,0-2.55,0t-2.75-.02c-.93,0-1.86,0-2.82,0-2.98,0-5.95-.02-8.93-.03-2.01,0-4.03,0-6.04-.01-4.94-.01-9.89-.03-14.83-.05-.33-.66-.66-1.32-1-2,.37-.52.73-1.04,1.11-1.58,6.16-8.78,12.33-17.57,18.39-26.42,4.61-6.73,9.28-13.41,13.96-20.09,4.53-6.46,9.04-12.93,13.54-19.41,5.22-7.51,10.45-15.01,15.69-22.5.56-.81,1.13-1.61,1.71-2.44.53-.76,1.07-1.52,1.62-2.31.5-.72,1-1.45,1.52-2.19.96-1.35,1.97-2.67,3.01-3.96,2.21-2.79,3.44-4.52,3.56-8.13-1.35-3.65-3.34-6.45-5.73-9.47-4.72-6.21-9.2-12.54-13.56-19-5.3-7.83-10.65-15.62-16.06-23.38-4.86-6.97-9.71-13.95-14.5-20.96-2.8-4.08-5.63-8.14-8.48-12.19q-1.1-1.57-2.23-3.18c-1.47-2.09-2.94-4.17-4.41-6.26-.67-.95-1.33-1.9-2.02-2.88-.6-.85-1.2-1.7-1.82-2.58q-1.29-2.08-1.29-4.08Z"/>
  <path class="cls-1" d="m711.94,162.83c-.91,6.24-2.87,11.88-4.94,17.81q-.54,1.59-1.09,3.22c-.35,1.01-.7,2.01-1.06,3.05-.32.92-.64,1.84-.96,2.79q-.95,2.13-2.95,3.13c-2.12-.99-4.2-2.07-6.25-3.19-14.54-7.63-33.01-12.09-49.25-7.62-8.63,3.11-15.33,8.08-19.81,16.19-2.43,9.28-1.51,16.38,3.06,24.88,9.24,11.3,23.61,16.09,36.69,21.69q28.1,12.09,38.56,23.06.96.95,1.95,1.92c10.89,11.41,14.58,26.39,14.4,41.77-.56,17.01-7.15,31.46-19.35,43.3-.54.56-1.08,1.12-1.64,1.7-14.97,14.37-38.68,17.34-58.36,18.3q-1.24.06-2.51.13c-17.82.45-35.18-3.86-51.55-10.63-.69-.27-1.37-.54-2.08-.82-2.79-1.22-4.56-2.08-5.97-4.84.16-4.17,1.45-7.74,2.86-11.64.27-.77.53-1.54.8-2.33,1.73-4.98,3.58-9.92,5.45-14.86,4.95.57,8.99,2.21,13.44,4.31,17.64,8.04,38.97,12.41,57.98,6.73,8.44-3.4,15.64-9.27,19.45-17.66,2.29-7.06,2.33-15.28-.44-22.19-7.1-13.49-20.03-19.37-33.6-24.76-23.05-9.19-45.25-19.42-56.83-42.81-4.9-12.74-5.05-28.91-.33-41.7,8.07-17.79,20.24-29.49,38.32-36.92,28.01-9.37,60.46-7.18,86,8Z"/>
  <path class="cls-1" d="m1507.94,53.83h41v315c-3.21,1.6-6.7,1.14-10.22,1.13-.81,0-1.63,0-2.47,0-1.72,0-3.44,0-5.16,0-2.64,0-5.28,0-7.92,0-1.67,0-3.34,0-5.01,0-.79,0-1.59,0-2.4,0q-5.59-.02-7.82-1.14V53.83Z"/>
  <path class="cls-1" d="m2099.94,154.83h41v215h-41v-215Z"/>
  <path class="cls-1" d="m2134.78,73.21c5.67,4.25,8.96,9.63,10.16,16.62.8,8.87-.61,15.35-6.25,22.31-5.37,5.71-11.26,7.25-18.91,7.75-7.12-.15-13.24-2.36-18.37-7.36-5.73-6.61-6.23-13.39-5.85-21.91.67-6.73,2.8-10.55,7.69-15.1,9.43-7.28,21.01-8.36,31.53-2.3Z"/>
  <path class="cls-1" d="m2427.94,156.83h8c.24.6.47,1.2.72,1.82,1.07,2.71,2.14,5.41,3.22,8.12.37.95.75,1.89,1.13,2.87.36.9.72,1.8,1.08,2.72.33.83.66,1.67,1,2.52q.69,1.92,1.85,2.95c2.64-6.93,5.28-13.86,8-21h8c.43,3.9.86,7.79,1.28,11.69.22,1.97.43,3.95.65,5.92q.2,1.87.41,3.78c.13,1.15.25,2.29.38,3.48.24,2.74.33,5.39.28,8.14h-7c-.66-5.61-1.32-11.22-2-17-2.1,3.15-3.25,6.08-4.56,9.62q-2.33,6.27-3.44,7.38c-1.67.04-3.33.04-5,0-2.85-6.27-5.47-12.6-8-19-.66,6.27-1.32,12.54-2,19h-7c.99-10.89,1.98-21.78,3-33Z"/>
  <path class="cls-1" d="m2397.94,156.83h25v5h-9v28h-7v-28h-9v-5Z"/>
</svg>