<svg width="350" height="350" viewBox="0 0 350 350" fill="none" xmlns="http://www.w3.org/2000/svg">
<path fill-rule="evenodd" clip-rule="evenodd" d="M350 175C350 78.3502 271.649 0 175 0C78.3502 0 0 78.3502 0 175C0 271.649 78.3502 350 175 350C271.649 350 350 271.649 350 175ZM112.947 148.878C111.206 135.131 115.093 121.548 123.885 110.639C133.045 99.2683 146.163 92.616 159.893 91.0757V79.1106C159.893 72.8843 165.099 67.8378 171.521 67.8378C177.943 67.8378 183.146 72.8843 183.146 79.1106V93.4311C188.715 95.2498 194.063 97.9943 198.953 101.697L218.88 116.792C223.94 120.626 224.837 127.704 220.884 132.612C216.927 137.519 209.624 138.387 204.566 134.557L184.639 119.463C171.503 109.517 152.47 111.782 142.208 124.513C137.236 130.682 135.043 138.359 136.027 146.129C137.012 153.9 141.055 160.835 147.417 165.652L175.817 187.165C180.877 190.999 181.774 198.082 177.823 202.99C175.529 205.836 172.112 207.319 168.656 207.319C166.154 207.319 163.631 206.541 161.507 204.931L133.108 183.417C121.845 174.889 114.688 162.625 112.947 148.878ZM186.822 146.037L214.42 167.549L214.426 167.557C237.004 185.157 241.018 217.806 223.378 240.333C214.475 251.702 201.732 258.354 188.388 259.892V271.854C188.388 278.081 183.33 283.127 177.09 283.127C170.849 283.127 165.794 278.081 165.794 271.854V257.533C160.382 255.713 155.181 252.97 150.436 249.265L131.076 234.173C126.158 230.339 125.284 223.256 129.126 218.351C132.969 213.443 140.066 212.574 144.984 216.409L164.347 231.503C169.706 235.677 176.076 237.699 182.397 237.699C191.139 237.704 199.788 233.836 205.574 226.447C210.402 220.28 212.538 212.603 211.581 204.833C210.625 197.064 206.692 190.13 200.509 185.313L172.916 163.801C167.997 159.967 167.126 152.885 170.969 147.979C174.808 143.072 181.904 142.203 186.822 146.037Z" fill="white"/>
</svg>
