<svg width="50" height="50" viewBox="0 0 50 50" fill="none" xmlns="http://www.w3.org/2000/svg">
<g clip-path="url(#clip0_2267_98)">
<g clip-path="url(#clip1_2267_98)">
<path d="M42 0C46.4183 7.08682e-07 50 3.58172 50 8V42C50 46.4183 46.4183 50 42 50H8C3.58172 50 0 46.4183 0 42V8C7.08705e-07 3.58172 3.58172 0 8 0H42ZM19.7998 16C18.5955 16 17.476 16.5605 16.5742 17.5322C15.9794 18.1729 15.4782 18.997 15.1143 19.9473C14.141 18.5714 12.8022 17.7433 11.3467 17.7432C10.1424 17.7432 9.02286 18.3036 8.12109 19.2754C6.84372 20.6513 6.00002 22.8667 6 25.3721C6 27.8774 6.84326 30.0933 8.11914 31.4678C9.02088 32.4395 10.1405 33 11.3447 33C13.3368 33 15.1158 31.4291 16.0322 29.0527C16.2017 29.2935 16.3828 29.5187 16.5742 29.7236C17.476 30.6954 18.5955 31.2558 19.7998 31.2559C21.0041 31.2559 22.1236 30.6953 23.0254 29.7236C23.99 28.6846 24.7062 27.1667 25 25.4082C25.2923 27.1682 26.01 28.686 26.9746 29.7236C27.8764 30.6953 28.9959 31.2559 30.2002 31.2559C31.4045 31.2558 32.524 30.6954 33.4258 29.7236C33.6172 29.5187 33.7983 29.2935 33.9678 29.0527C34.8842 31.4291 36.6632 33 38.6553 33C39.8595 33 40.9791 32.4395 41.8809 31.4678C43.1582 30.0918 44 27.8759 44 25.3721C44 22.8682 43.1568 20.6509 41.8809 19.2764C40.9791 18.3046 39.8581 17.7442 38.6553 17.7441C37.1997 17.7441 35.8611 18.5726 34.8877 19.9482C34.5223 18.9981 34.0216 18.1753 33.4268 17.5332C32.5251 16.5617 31.4053 16.001 30.2012 16.001C28.997 16.0011 27.8772 16.5616 26.9756 17.5332C26.011 18.5723 25.2947 20.0905 25.001 21.8506L25 21.8496C24.7062 20.0896 23.99 18.5713 23.0254 17.5322C22.1236 16.5605 21.0041 16 19.7998 16ZM11.3467 18.6514C12.7349 18.6515 13.9492 19.6305 14.7529 21.1094C14.5615 21.8976 14.4561 22.7447 14.4561 23.6289C14.4561 25.2557 14.8129 26.7625 15.4121 27.9951C14.7427 30.3712 13.2041 32.0906 11.3467 32.0908C10.3938 32.0908 9.51986 31.6237 8.80664 30.8555C7.65933 29.62 6.92773 27.6223 6.92773 25.3721V25.2012H6.92969C7.33307 26.719 8.33713 27.7939 9.51367 27.7939H9.51465C9.61403 27.7939 9.68991 27.7094 9.67676 27.6162C9.64609 27.3899 9.61466 27.1505 9.58691 26.9199C9.5095 26.2894 9.73272 25.673 10.041 25.6729C10.1769 25.6729 10.3073 25.7983 10.3965 26.0176C10.5075 26.2899 10.6624 26.6839 10.7822 27.042C10.8203 27.1565 10.9738 27.1884 11.0615 27.1025C11.8011 26.3701 12.2871 25.1267 12.2871 23.7178C12.287 21.4663 11.0452 19.6417 9.51367 19.6416C9.32818 19.6416 9.14549 19.6692 8.96875 19.7207C9.65124 19.0515 10.4655 18.6514 11.3467 18.6514ZM38.6553 18.6514C39.5361 18.6514 40.3499 19.051 41.0322 19.7197C40.8561 19.6686 40.674 19.6416 40.4893 19.6416C38.9577 19.6417 37.716 21.4663 37.7158 23.7178C37.7158 25.1281 38.2004 26.3701 38.9414 27.1025C39.0291 27.1884 39.1827 27.1565 39.2207 27.042C39.3405 26.6839 39.4954 26.2899 39.6064 26.0176C39.6956 25.7997 39.826 25.6729 39.9619 25.6729C40.2687 25.673 40.4939 26.2894 40.415 26.9199C40.3873 27.1491 40.3549 27.3884 40.3242 27.6162C40.3111 27.7093 40.387 27.7939 40.4863 27.7939H40.4883C41.6632 27.7937 42.6689 26.7188 43.0723 25.2012C43.0737 25.2585 43.0732 25.3148 43.0732 25.3721C43.0732 27.6208 42.3425 29.62 41.1953 30.8555C40.4821 31.6237 39.6082 32.0908 38.6553 32.0908C36.7962 32.0908 35.2583 30.3715 34.5889 27.9951C35.1881 26.7625 35.5449 25.2571 35.5449 23.6289C35.5449 22.7447 35.4395 21.8976 35.248 21.1094C36.0519 19.6288 37.2668 18.6514 38.6553 18.6514ZM19.7998 16.9102C20.7527 16.9102 21.6266 17.3774 22.3398 18.1455C23.4871 19.3809 24.2177 21.3803 24.2178 23.6289C24.2178 25.8777 23.4872 27.8778 22.3398 29.1133C21.6267 29.8814 20.7526 30.3486 19.7998 30.3486C18.847 30.3486 17.973 29.8814 17.2598 29.1133C16.1125 27.8778 15.3818 25.8777 15.3818 23.6289V23.46H15.3828C15.7862 24.9777 16.7918 26.0526 17.9668 26.0527H17.9688C18.068 26.0526 18.144 25.9681 18.1309 25.875C18.0987 25.6472 18.0678 25.408 18.04 25.1787C17.9626 24.5481 18.1867 23.9316 18.4951 23.9316C18.6308 23.9319 18.7606 24.058 18.8496 24.2754C18.9607 24.5477 19.1155 24.9425 19.2354 25.3008C19.2734 25.4153 19.4285 25.4477 19.5146 25.3604C20.2542 24.6279 20.7412 23.3869 20.7412 21.9766C20.7411 19.725 19.4985 17.9004 17.9668 17.9004C17.7798 17.9004 17.5986 17.9279 17.4219 17.9795C18.1044 17.3102 18.9185 16.9102 19.7998 16.9102ZM30.2002 16.9092C31.0806 16.9092 31.8941 17.3075 32.5762 17.9756C32.4 17.9244 32.2195 17.8975 32.0332 17.8975C30.5016 17.8975 29.2589 19.7221 29.2588 21.9736C29.2588 23.3839 29.7459 24.625 30.4854 25.3574C30.573 25.4448 30.7275 25.4123 30.7656 25.2979C30.8855 24.9395 31.0403 24.5448 31.1514 24.2725C31.2405 24.0547 31.371 23.9287 31.5068 23.9287C31.8152 23.9288 32.0384 24.5452 31.9609 25.1758C31.9332 25.405 31.9032 25.6443 31.8711 25.8721C31.8579 25.9652 31.9338 26.0498 32.0332 26.0498H32.0342C33.2093 26.0498 34.2148 24.9749 34.6182 23.457V23.6279C34.6181 25.8767 33.8875 27.8759 32.7402 29.1113C32.027 29.8795 31.1531 30.3467 30.2002 30.3467C29.2473 30.3467 28.3734 29.8796 27.6602 29.1113C26.5129 27.8759 25.7822 25.8767 25.7822 23.6279C25.7822 21.3792 26.5129 19.38 27.6602 18.1445C28.3734 17.3763 29.2473 16.9092 30.2002 16.9092Z" fill="#1E42F6"/>
</g>
</g>
<defs>
<clipPath id="clip0_2267_98">
<rect width="50" height="50" fill="white"/>
</clipPath>
<clipPath id="clip1_2267_98">
<rect width="50" height="50" fill="white"/>
</clipPath>
</defs>
</svg>
