<svg width="50" height="50" viewBox="0 0 50 50" fill="none" xmlns="http://www.w3.org/2000/svg">
<g clip-path="url(#clip0_2266_62)">
<g clip-path="url(#clip1_2266_62)">
<mask id="mask0_2266_62" style="mask-type:luminance" maskUnits="userSpaceOnUse" x="0" y="0" width="50" height="50">
<path d="M49.8468 0.181976H0.169922V49.9332H49.8468V0.181976Z" fill="white"/>
</mask>
<g mask="url(#mask0_2266_62)">
<path d="M49.6039 28.9682C51.0052 16.9232 42.9389 4.81101 29.9552 2.64255C24.5981 1.72243 18.9266 2.75285 14.2196 5.49168C12.2483 6.70235 13.6015 5.86026 12.0192 6.93912C1.72856 14.4534 2.87935 28.0587 11.7554 33.8592C6.61147 31.2818 3.27361 26.1378 2.6476 20.5444C2.18941 15.2067 4.28056 9.7721 8.88642 6.00016C26.319 -8.50108 52.6355 5.9571 49.6066 28.9682H49.6039Z" fill="url(#paint0_linear_2266_62)"/>
<path d="M48.9488 31.2739C52.0281 14.0821 35.0113 0.229264 18.8654 6.85032C18.3459 7.08978 17.5921 7.39918 17.1072 7.68435C4.31787 14.5099 4.93856 28.8147 13.5802 34.6341C13.186 34.4943 12.7997 34.3408 12.4241 34.1741C2.76484 28.0804 1.96034 12.7907 15.0214 5.87102C19.5047 3.42276 24.8059 2.54301 29.8325 3.39047C43.336 5.64771 51.3596 18.7204 48.9488 31.2739Z" fill="url(#paint1_linear_2266_62)"/>
<path d="M48.5145 32.1348C49.8997 24.3702 46.6603 16.0919 39.8436 11.5236C31.668 5.89794 20.0801 7.25122 13.4923 14.7359C8.49748 20.4422 8.45751 29.5438 14.1662 34.8279C14.0117 34.7794 13.8599 34.7284 13.708 34.6771C5.89219 29.0677 5.78298 17.3779 13.1699 11.2007C14.0437 10.3855 16.4838 8.66906 18.2819 7.91035C22.2671 6.05936 26.8278 5.49438 31.1379 6.29881C43.4771 8.57757 50.7441 20.5794 48.5145 32.1321V32.1348Z" fill="url(#paint2_linear_2266_62)"/>
<path d="M48.0322 33.2674C49.9051 23.7568 44.0313 13.8023 34.0468 11.4348C21.8383 8.42422 9.34461 18.793 12.6318 30.8353C13.0208 32.2746 13.6255 33.6547 14.4247 34.9057C14.3527 34.8843 14.2808 34.8627 14.2116 34.8413C8.24709 28.7664 8.94769 18.5993 16.2361 13.0463C22.7653 7.79467 32.531 7.39917 39.4465 12.1262C46.4554 16.7241 49.6601 25.3119 48.035 33.2647L48.0322 33.2674Z" fill="url(#paint3_linear_2266_62)"/>
<path d="M47.9764 31.2333C47.8911 15.7771 30.4106 8.46994 19.6699 18.1043C15.0267 22.2529 12.9515 28.8793 14.5392 34.9381C14.5046 34.9301 14.47 34.9191 14.4353 34.9085C10.6606 28.2848 12.6239 20.3158 18.0049 15.9331C24.0999 10.7245 33.365 10.2591 39.934 14.8462C45.3897 18.5132 48.2774 24.8841 47.9791 31.2308L47.9764 31.2333Z" fill="url(#paint4_linear_2266_62)"/>
<path d="M0.41259 21.1471C-0.988617 33.192 7.07765 45.3042 20.0615 47.4726C25.4185 48.3928 31.0899 47.3624 35.797 44.6236C37.7685 43.4129 36.415 44.255 37.9975 43.1761C48.2882 35.6617 47.1372 22.0565 38.2611 16.256C43.4052 18.8334 46.7431 23.9774 47.3689 29.5707C47.8271 34.9085 45.7359 40.343 41.1303 44.1149C23.6977 58.6162 -2.61893 44.1582 0.409925 21.1471H0.41259Z" fill="url(#paint5_linear_2266_62)"/>
<path d="M1.06525 18.8414C-2.01421 36.0331 15.0027 49.8858 31.1485 43.2649C31.668 43.0254 32.4219 42.7159 32.9067 42.4308C45.6961 35.6052 45.0754 21.3004 36.4338 15.4811C36.8281 15.621 37.2143 15.7744 37.5899 15.9412C47.249 22.0349 48.0537 37.3244 34.9926 44.2443C30.5094 46.6925 25.2081 47.5721 20.1813 46.7246C6.67807 44.4674 -1.34557 31.3948 1.06525 18.8414Z" fill="url(#paint6_linear_2266_62)"/>
<path d="M1.50208 17.9804C0.116853 25.745 3.35614 34.0234 10.173 38.5915C18.3485 44.2172 29.9364 42.8639 36.5243 35.3793C41.5192 29.6729 41.5591 20.5713 35.8502 15.2874C36.0049 15.3358 36.1566 15.3869 36.3086 15.438C44.1243 21.0475 44.2335 32.7373 36.8465 38.9144C35.9729 39.7296 33.5327 41.446 31.7347 42.2047C27.7495 44.0557 23.1888 44.6209 18.8787 43.8164C6.53949 41.5376 -0.727602 29.5358 1.50208 17.9831V17.9804Z" fill="url(#paint7_linear_2266_62)"/>
<path d="M1.98164 16.8479C0.108924 26.3585 5.9828 36.3129 15.9671 38.6804C28.1756 41.6911 40.6694 31.3221 37.382 19.28C36.9931 17.8406 36.3884 16.4604 35.5894 15.2094C35.6613 15.2309 35.7332 15.2524 35.8025 15.274C41.767 21.3489 41.0662 31.5159 33.7778 37.0689C27.2488 42.3207 17.4828 42.7159 10.5674 37.9891C3.55866 33.3911 0.354001 24.8034 1.97898 16.8506L1.98164 16.8479Z" fill="url(#paint8_linear_2266_62)"/>
<path d="M2.04022 18.8818C2.12547 34.3381 19.6059 41.6453 30.3468 32.011C34.9899 27.8624 37.065 21.2359 35.4773 15.1771C35.512 15.1852 35.5468 15.196 35.5813 15.2067C39.3561 21.8305 37.3928 29.7995 32.0115 34.1821C25.9167 39.3908 16.6517 39.8562 10.0825 35.2689C4.62687 31.602 1.7392 25.2311 2.03756 18.8845L2.04022 18.8818Z" fill="url(#paint9_linear_2266_62)"/>
</g>
</g>
</g>
<defs>
<linearGradient id="paint0_linear_2266_62" x1="132.916" y1="62.2002" x2="13.873" y2="-26.4559" gradientUnits="userSpaceOnUse">
<stop offset="0.1" stop-color="#AD9CFC"/>
<stop offset="1" stop-color="#1C55FB"/>
</linearGradient>
<linearGradient id="paint1_linear_2266_62" x1="127.038" y1="61.1913" x2="15.5599" y2="-21.6402" gradientUnits="userSpaceOnUse">
<stop offset="0.1" stop-color="#AD9CFC"/>
<stop offset="1" stop-color="#1C55FB"/>
</linearGradient>
<linearGradient id="paint2_linear_2266_62" x1="121.294" y1="59.1363" x2="18.7396" y2="-18.4513" gradientUnits="userSpaceOnUse">
<stop offset="0.1" stop-color="#AD9CFC"/>
<stop offset="1" stop-color="#1C55FB"/>
</linearGradient>
<linearGradient id="paint3_linear_2266_62" x1="115.679" y1="56.8515" x2="22.409" y2="-15.7465" gradientUnits="userSpaceOnUse">
<stop offset="0.1" stop-color="#AD9CFC"/>
<stop offset="1" stop-color="#1C55FB"/>
</linearGradient>
<linearGradient id="paint4_linear_2266_62" x1="110.432" y1="54.4997" x2="26.5203" y2="-13.5451" gradientUnits="userSpaceOnUse">
<stop offset="0.1" stop-color="#AD9CFC"/>
<stop offset="1" stop-color="#1C55FB"/>
</linearGradient>
<linearGradient id="paint5_linear_2266_62" x1="-25.8542" y1="30.8453" x2="47.6432" y2="34.6046" gradientUnits="userSpaceOnUse">
<stop offset="0.1" stop-color="#D1C8FB"/>
<stop offset="1" stop-color="#1C55FB"/>
</linearGradient>
<linearGradient id="paint6_linear_2266_62" x1="-23.691" y1="29.1522" x2="45.024" y2="32.6589" gradientUnits="userSpaceOnUse">
<stop offset="0.1" stop-color="#D1C8FB"/>
<stop offset="1" stop-color="#1C55FB"/>
</linearGradient>
<linearGradient id="paint7_linear_2266_62" x1="-21.5733" y1="27.8007" x2="42.461" y2="31.1279" gradientUnits="userSpaceOnUse">
<stop offset="0.1" stop-color="#D1C8FB"/>
<stop offset="1" stop-color="#1C55FB"/>
</linearGradient>
<linearGradient id="paint8_linear_2266_62" x1="-19.4976" y1="26.5065" x2="39.9701" y2="29.6856" gradientUnits="userSpaceOnUse">
<stop offset="0.1" stop-color="#D1C8FB"/>
<stop offset="1" stop-color="#1C55FB"/>
</linearGradient>
<linearGradient id="paint9_linear_2266_62" x1="-17.5421" y1="25.247" x2="37.6687" y2="28.322" gradientUnits="userSpaceOnUse">
<stop offset="0.1" stop-color="#D1C8FB"/>
<stop offset="1" stop-color="#1C55FB"/>
</linearGradient>
<clipPath id="clip0_2266_62">
<rect width="50" height="50" fill="white"/>
</clipPath>
<clipPath id="clip1_2266_62">
<rect width="50" height="50" fill="white"/>
</clipPath>
</defs>
</svg>
