<svg width="50" height="50" viewBox="0 0 50 50" fill="none" xmlns="http://www.w3.org/2000/svg">
<path fill-rule="evenodd" clip-rule="evenodd" d="M25 0C11.1942 0 0 11.4738 0 25.6375C0 36.9662 7.16518 46.565 17.0982 49.958C18.3482 50.1924 18.8058 49.3999 18.8058 48.7191C18.8058 48.1052 18.7835 46.498 18.7723 44.355C11.8192 45.9064 10.346 40.9173 10.346 40.9173C9.20759 37.9596 7.56696 37.1671 7.56696 37.1671C5.30134 35.5711 7.73438 35.6046 7.73438 35.6046C10.2455 35.7831 11.5625 38.2498 11.5625 38.2498C13.7946 42.1674 17.4107 41.0401 18.8393 40.3816C19.0625 38.7297 19.7098 37.5913 20.4241 36.9551C14.8772 36.3077 9.04018 34.1089 9.04018 24.287C9.04018 21.4855 10.0112 19.1974 11.6071 17.4116C11.3504 16.7643 10.4911 14.1525 11.8527 10.6256C11.8527 10.6256 13.9509 9.93356 18.7277 13.2485C20.7254 12.6792 22.8571 12.4002 24.9888 12.389C27.1094 12.4002 29.2522 12.6792 31.25 13.2485C36.0268 9.93356 38.1138 10.6256 38.1138 10.6256C39.4754 14.1525 38.6161 16.7643 38.3594 17.4116C39.9554 19.2086 40.9263 21.4967 40.9263 24.287C40.9263 34.1313 35.0781 36.2966 29.5089 36.9328C30.4018 37.7252 31.2054 39.2878 31.2054 41.6763C31.2054 45.1028 31.1719 47.8708 31.1719 48.7079C31.1719 49.3888 31.6183 50.1924 32.8906 49.9357C42.846 46.5538 50 36.9551 50 25.6375C50 11.4738 38.8058 0 25 0Z" fill="black"/>
</svg>
