<svg width="50" height="50" viewBox="0 0 50 50" fill="none" xmlns="http://www.w3.org/2000/svg">
<path d="M41.6666 6.25H8.33329C6.03538 6.25 4.16663 8.11875 4.16663 10.4167V39.5833C4.16663 40.6884 4.60561 41.7482 5.38701 42.5296C6.16842 43.311 7.22822 43.75 8.33329 43.75H41.6666C42.7717 43.75 43.8315 43.311 44.6129 42.5296C45.3943 41.7482 45.8333 40.6884 45.8333 39.5833V10.4167C45.8333 8.11875 43.9645 6.25 41.6666 6.25ZM39.5833 25H33.0375C32.1083 28.5875 28.877 31.25 25 31.25C21.1229 31.25 17.8916 28.5875 16.9625 25H8.33329V10.4167H41.6666V25H39.5833Z" fill="black"/>
</svg>
