<svg width="50" height="50" viewBox="0 0 50 50" fill="none" xmlns="http://www.w3.org/2000/svg">
<path d="M43.75 0C47.1995 0 50 2.80049 50 6.25V43.75C50 47.1995 47.1995 50 43.75 50H6.25C2.80049 50 0 47.1995 0 43.75V6.25C0 2.80049 2.80049 0 6.25 0H43.75ZM5.96191 42.6396H14.3369V17.4482H5.96191V42.6396ZM34.8906 16.8555C30.4482 16.8555 28.458 19.2986 27.3438 21.0146V17.4482H18.9707C19.0817 19.8126 18.9707 42.6396 18.9707 42.6396H27.3438V28.5703C27.3438 27.8174 27.3982 27.0645 27.6201 26.5264C28.2245 25.0226 29.603 23.4649 31.916 23.4648C34.9445 23.4648 36.1582 25.7761 36.1582 29.1611V42.6396H44.5312V28.1934C44.5312 20.4555 40.3998 16.8556 34.8906 16.8555ZM10.2061 5.30078C7.34095 5.30087 5.4689 7.18448 5.46875 9.65332C5.46875 12.0705 7.28428 14.0068 10.0957 14.0068H10.1494C13.0696 14.0068 14.8877 12.0705 14.8877 9.65332C14.8334 7.18442 13.0696 5.30078 10.2061 5.30078Z" fill="#1E42F6"/>
</svg>
