<svg width="50" height="50" viewBox="0 0 50 50" fill="none" xmlns="http://www.w3.org/2000/svg">
<g clip-path="url(#clip0_2266_22)">
<path fill-rule="evenodd" clip-rule="evenodd" d="M17.2709 16.3652C17.2709 7.32569 24.5974 0 33.6367 0C42.6735 0 50 7.32691 50 16.3652C50 25.4035 42.6735 32.7304 33.6355 32.7304H29.0378C28.7725 32.7304 28.518 32.6251 28.3305 32.4376C28.1429 32.2502 28.0375 31.9959 28.0375 31.7309V25.5412C28.0375 25.2761 28.1429 25.0219 28.3305 24.8344C28.518 24.647 28.7725 24.5417 29.0378 24.5417H33.6355C34.7096 24.5412 35.7731 24.3293 36.7652 23.9182C37.7574 23.507 38.6588 22.9046 39.418 22.1453C40.1771 21.3861 40.7792 20.4848 41.1898 19.4931C41.6004 18.5013 41.8115 17.4385 41.811 16.3652C41.8115 15.2919 41.6004 14.2291 41.1898 13.2373C40.7792 12.2455 40.1771 11.3443 39.418 10.585C38.6588 9.82579 37.7574 9.22338 36.7652 8.81221C35.7731 8.40104 34.7096 8.18917 33.6355 8.18869C32.5612 8.18901 31.4976 8.40076 30.5053 8.81186C29.513 9.22295 28.6115 9.82534 27.8522 10.5846C27.0929 11.3439 26.4907 12.2452 26.08 13.237C25.6693 14.2289 25.4582 15.2918 25.4587 16.3652V24.0956L25.4526 32.9327L25.4587 37.2721C25.4587 44.3016 19.7594 50 12.733 50C5.70167 50.0012 0.00122007 44.304 1.95832e-07 37.2733C-0.00121967 30.2426 5.69679 24.5417 12.7269 24.5405H13.6772C13.9425 24.5405 14.1969 24.6458 14.3845 24.8332C14.5721 25.0207 14.6775 25.2749 14.6775 25.54V31.7296C14.6775 31.8609 14.6516 31.9909 14.6013 32.1121C14.5511 32.2334 14.4774 32.3436 14.3845 32.4364C14.2916 32.5292 14.1813 32.6028 14.06 32.6531C13.9386 32.7033 13.8085 32.7292 13.6772 32.7292H12.7281C12.1315 32.7295 11.5409 32.8472 10.9899 33.0756C10.4388 33.304 9.9382 33.6387 9.51659 34.0604C9.09498 34.4821 8.76063 34.9827 8.53263 35.5336C8.30463 36.0844 8.18744 36.6747 8.18776 37.2708C8.22116 38.4519 8.71415 39.5735 9.56197 40.3972C10.4098 41.2208 11.5456 41.6817 12.7281 41.6819C13.9106 41.682 15.0466 41.2215 15.8946 40.398C16.7427 39.5746 17.236 38.4532 17.2697 37.2721V32.7292L17.2624 24.5405L17.2697 16.364L17.2709 16.3652Z" fill="#6366F1"/>
</g>
<defs>
<clipPath id="clip0_2266_22">
<rect width="50" height="50" fill="white"/>
</clipPath>
</defs>
</svg>
