<svg width="50" height="50" viewBox="0 0 50 50" fill="none" xmlns="http://www.w3.org/2000/svg">
<path fill-rule="evenodd" clip-rule="evenodd" d="M33.7741 10.4149L43.0061 21.586C47.2752 26.7407 48.206 33.9416 45.3913 40.0389C42.5859 46.1229 36.5609 50.0073 29.9408 50H12.4246L17.2163 39.5851L7.98435 28.414C3.72835 23.266 2.79814 16.0821 5.59917 9.99352C8.39354 3.90032 14.4153 0.00270095 21.039 0H38.5658L33.7741 10.4149ZM37.2135 39.4987C38.5013 39.4958 39.6714 38.7379 40.2163 37.554C40.7601 36.3712 40.5773 34.9754 39.7477 33.978L26.9167 18.4313L30.5797 10.5121H13.8302C12.5433 10.5073 11.3709 11.2617 10.8267 12.4449C10.2825 13.6282 10.4657 15.0243 11.2959 16.022L24.0737 31.5363L20.4107 39.4987H37.2135Z" fill="#0061FF"/>
</svg>
