<svg width="50" height="50" viewBox="0 0 50 50" fill="none" xmlns="http://www.w3.org/2000/svg">
<g clip-path="url(#clip0_2266_25)">
<path d="M50 25C50 11.1929 38.8071 0 25 0C11.1929 0 0 11.1929 0 25C0 38.8071 11.1929 50 25 50C38.8071 50 50 38.8071 50 25Z" fill="url(#paint0_linear_2266_25)"/>
<path d="M16.1202 21.4164C15.872 19.4561 16.4263 17.5189 17.6801 15.9633C18.9864 14.3416 20.8571 13.393 22.8152 13.1733V11.467C22.8152 10.579 23.5575 9.85934 24.4734 9.85934C25.3891 9.85934 26.1314 10.579 26.1314 11.467V13.5092C26.9255 13.7686 27.6882 14.16 28.3853 14.688L31.2273 16.8407C31.9491 17.3875 32.0769 18.397 31.5128 19.0968C30.9489 19.7966 29.9073 19.9203 29.186 19.3743L26.3441 17.2216C24.4709 15.8032 21.7566 16.1263 20.2932 17.9418C19.5841 18.8216 19.2712 19.9162 19.4118 21.0245C19.5521 22.1327 20.1287 23.1216 21.036 23.8086L25.086 26.8766C25.8078 27.4234 25.9355 28.4334 25.3723 29.1332C25.0452 29.5393 24.5577 29.7507 24.0648 29.7507C23.7082 29.7507 23.3484 29.6396 23.0453 29.4102L18.9953 26.3421C17.3891 25.1259 16.3685 23.377 16.1202 21.4164Z" fill="white"/>
<path d="M30.592 24.0796L26.6563 21.012C25.9549 20.4652 24.9427 20.5889 24.3952 21.2888C23.8474 21.9886 23.9715 22.9984 24.6727 23.5452L28.6081 26.613C29.4897 27.2998 30.0506 28.2888 30.1868 29.3968C30.3233 30.505 30.0188 31.5996 29.3304 32.4793C28.505 33.533 27.2715 34.0845 26.025 34.0838C25.1236 34.0838 24.215 33.7952 23.4509 33.2L20.6895 31.0475C19.9883 30.5009 18.9761 30.6246 18.4281 31.3245C17.88 32.0243 18.0049 33.0341 18.7061 33.5809L21.467 35.7334C22.1438 36.2614 22.8856 36.6527 23.657 36.9121V38.9546C23.657 39.8425 24.3783 40.5621 25.2681 40.5621C26.1581 40.5621 26.8793 39.8425 26.8793 38.9546V37.2486C28.7825 37.0295 30.5997 36.0809 31.8693 34.4595C34.385 31.2468 33.8118 26.5895 30.592 24.0796Z" fill="white"/>
</g>
<defs>
<linearGradient id="paint0_linear_2266_25" x1="14.8148" y1="-1.37204e-07" x2="36.3118" y2="48.1136" gradientUnits="userSpaceOnUse">
<stop stop-color="#6D55FF"/>
<stop offset="1" stop-color="#3E68FF"/>
</linearGradient>
<clipPath id="clip0_2266_25">
<rect width="50" height="50" fill="white"/>
</clipPath>
</defs>
</svg>
