<svg width="350" height="350" viewBox="0 0 350 350" fill="none" xmlns="http://www.w3.org/2000/svg">
<mask id="mask0_1333_893" style="mask-type:luminance" maskUnits="userSpaceOnUse" x="0" y="0" width="350" height="350">
<path d="M350 0H0V350H350V0Z" fill="white"/>
</mask>
<g mask="url(#mask0_1333_893)">
<path d="M312.832 66.1852C247.516 -16.6273 123.024 -21.9339 50.5959 51.4623C39.9211 62.7725 37.5014 68.2975 30.6817 78.8272C-35.8279 173.678 10.7048 307.59 122.773 342.144C205.74 368.282 296.51 325.996 324.679 263.13C361.647 205.121 358.483 122.08 312.832 66.1852ZM210.558 21.5587C173.642 15.3157 134.558 22.2974 102.115 40.8598C92.6554 46.572 93.9228 45.4586 78.6181 57.1539C40.8429 86.7246 25.7896 139.727 44.5934 184.739C52.7851 204.425 67.1472 221.552 85.1339 233.112C49.6843 215.641 26.6905 180.785 22.3641 142.88C19.2109 106.712 33.6149 69.8686 65.356 44.3141C185.5 -53.9601 366.854 44.0228 345.965 199.982C355.614 118.345 300.041 36.2608 210.558 21.5587ZM245.453 48.3409C195.704 29.8618 137.533 37.9672 93.6191 74.6548C39.6279 118.376 41.5449 201.178 97.715 238.375C94.9915 237.428 92.3305 236.388 89.743 235.254C23.3488 194.061 22.3536 97.0358 92.6657 52.5341C122.322 31.2873 166.32 19.4464 209.72 26.6259C302.775 41.9314 358.075 130.519 341.462 215.6C353.98 146.844 315.848 74.2595 245.453 48.3409ZM278.701 81.7614C199.496 28.1554 80.6922 71.2732 71.8508 163.325C69.6299 191.564 80.8493 220.677 101.759 239.707C100.701 239.384 99.6426 239.042 98.5949 238.688C44.7295 200.669 43.9858 121.446 94.8866 79.5867C102.46 72.6363 119.295 61.7737 130.116 57.2787C157.573 44.7407 188.999 40.9117 218.709 46.3639C303.749 61.8048 353.823 143.14 338.454 221.447C347.997 168.819 325.675 112.716 278.701 81.7614ZM238.768 81.1578C179.383 66.7575 115.063 97.9306 94.5094 151.1C82.6197 182.044 86.9776 214.715 103.539 240.238C103.047 240.092 102.555 239.946 102.062 239.801C86.5586 224.266 76.3553 203.29 74.742 180.587C66.833 86.9637 191.66 29.1646 275.957 85.8506C324.25 117.013 346.342 175.208 335.144 229.116C348.05 164.657 307.572 97.1919 238.768 81.1578ZM329.309 253.993C328.115 256.387 326.859 258.759 325.558 261.1C326.439 259.019 326.754 258.895 329.309 253.993ZM327.172 257.135C327.351 256.657 327.172 257.135 328.932 253.577C328.366 254.763 327.769 255.949 327.172 257.135ZM130.745 307.329C176.879 316.517 226.596 302.544 261.343 271.141C268.771 264.481 275.989 256.896 281.32 248.801C312.235 203.488 301.978 139.685 256.389 109.095C259.342 110.156 262.233 111.322 265.041 112.601C326.513 151.724 341.388 254.763 240.79 307.319C116.697 368.552 -15.5785 261.339 9.76196 133.817C-3.84583 210.626 45.8085 291.181 130.745 307.329ZM251.852 107.576C291.775 147.947 286.852 212.759 244.195 249.531C206.294 284.21 149.035 294.438 101.266 275.386C37.7946 251.049 -1.14314 178.86 19.9023 108.523C12.0771 136.314 13.816 166.873 25.643 193.323C64.8531 282.629 187.302 297.331 246.31 219.314C270.363 186.143 272.49 141.548 250.083 107.045C250.68 107.222 251.267 107.389 251.852 107.576ZM12.9884 172.669C30.9018 281.015 160.171 327.266 243.808 255.741C289.827 217.961 296.059 148.904 252.041 107.628C253.172 107.982 254.304 108.356 255.426 108.741C299.411 140.404 308.295 200.346 279.236 244.494C274.365 252.527 265.387 261.559 258.327 267.781C207.354 312.927 129.749 317.392 74.0298 278.071C20.0491 240.551 -1.05933 173.491 16.613 113.767C11.1866 132.839 9.85624 153.118 12.9884 172.669ZM243.063 311.679C344.793 257.24 329.509 154.148 269.482 114.755C328.555 144.877 351.727 221.186 310.59 279.143C300.051 294.084 276.963 315.082 249.748 328.036C117.577 390.923 -27.3322 271.806 8.29538 130.612C-24.1371 264.534 117.461 375.533 243.063 311.679ZM139.67 126.357C107.677 154.471 93.3676 199.389 104.315 240.446C87.4804 157.915 163.617 82.7081 249.003 106.723C249.35 106.827 249.696 106.931 250.03 107.035C271.705 143.722 266.498 191.398 238.223 223.028C224.26 238.428 206.535 250.592 186.841 257.551C91.3563 290.15 7.75064 210.366 18.771 123.652C16.2254 161.619 31.5302 200.855 63.795 225.526C120.049 269.508 204.787 252.226 238.675 189.494C252.449 164.532 256.283 134.16 249.025 106.764C249.035 106.837 249.056 106.9 249.066 106.972C266.268 191.897 185.962 265.137 103.592 240.25C77.5809 195.362 91.1154 141.35 128.199 111.655C170.196 76.3613 234.055 73.2086 279.31 104.288C316.905 129.135 336.799 172.326 334.746 215.33C334.149 110.583 213.7 61.0556 139.67 126.357ZM31.0797 78.9521C31.1532 78.848 31.2265 78.7335 31.2998 78.6295C31.2578 78.7127 31.1322 78.8791 31.0797 78.9521Z" fill="white"/>
</g>
</svg>
