<svg width="435" height="350" viewBox="0 0 435 350" fill="none" xmlns="http://www.w3.org/2000/svg">
<path fill-rule="evenodd" clip-rule="evenodd" d="M313.493 126.397C330.491 119.095 357.231 106.942 357.231 85.0703C357.231 77.7856 352.36 72.9174 345.088 72.9174C337.78 72.9174 332.926 82.6362 323.201 80.2021C311.057 75.3515 311.057 68.0668 311.057 58.3304C311.057 29.174 347.506 12.1529 371.811 12.1529C413.113 12.1529 435 46.1951 435 87.5044C435 140.967 396.116 179.859 354.796 187.162C349.942 189.578 335.362 194.446 335.362 201.731C335.362 209.033 352.36 221.186 352.36 240.624C352.36 279.517 320.765 311.107 289.17 325.694C257.576 342.715 218.709 350 182.26 350C97.2021 350 0 298.954 0 201.731C0 140.967 26.7231 114.244 77.7687 97.2232C87.4766 92.3726 87.4766 92.3726 87.4766 82.6362C87.4766 63.1986 89.9124 46.1775 102.056 31.5905C121.507 9.71879 165.245 0 194.404 0C235.724 0 262.447 21.8717 264.883 46.1775C267.319 65.6327 252.739 77.7856 240.578 77.7856C228.435 77.7856 228.435 65.6151 211.419 65.6151C196.84 65.6151 189.533 70.4833 189.533 85.0703C189.533 109.376 218.709 119.113 218.709 131.248C218.709 143.418 199.276 153.119 179.825 150.703C167.681 148.269 170.117 148.269 165.245 145.835C148.23 138.55 114.217 138.55 106.928 187.162C102.056 221.186 123.943 272.232 204.13 267.364C233.288 264.93 257.593 243.058 252.739 221.186C245.45 192.012 179.842 238.19 172.535 194.446C167.681 167.706 218.709 155.554 240.578 148.269L313.475 126.397H313.493Z" fill="white"/>
</svg>
