<svg width="350" height="350" viewBox="0 0 350 350" fill="none" xmlns="http://www.w3.org/2000/svg">
<path fill-rule="evenodd" clip-rule="evenodd" d="M120.893 114.553C120.893 51.2866 172.179 0 235.448 0C298.712 0 350 51.2883 350 114.553C350 177.82 298.713 229.109 235.448 229.109H203.305C199.421 229.109 196.271 225.973 196.271 222.105V178.794C196.271 174.925 199.42 171.789 203.305 171.789H235.448C267.056 171.789 292.681 146.163 292.681 114.553C292.681 82.9446 267.056 57.3192 235.448 57.3192C203.835 57.3192 178.212 82.9433 178.212 114.553L178.168 230.517L178.212 260.895C178.202 310.111 138.321 349.99 89.1297 350C39.9181 350.015 0.0147826 310.13 1.82552e-06 260.914C-0.00985202 211.702 39.8734 171.8 89.0906 171.789H95.7036C99.5879 171.789 102.737 174.925 102.737 178.794V222.105C102.737 225.973 99.5879 229.109 95.7036 229.109H89.0967C71.5422 229.112 57.3151 243.346 57.3186 260.899C57.3238 278.457 71.559 292.686 89.1155 292.681C106.663 292.677 120.89 278.451 120.893 260.908L120.84 171.789L120.893 114.553Z" fill="white"/>
</svg>
