<svg width="350" height="350" viewBox="0 0 350 350" fill="none" xmlns="http://www.w3.org/2000/svg">
<path d="M284.185 38.1586C284.612 38.5047 285.046 38.8509 285.488 39.2044C296.143 47.8366 306.098 57.522 314.206 68.5995C315.097 69.8148 316.01 71.0153 316.93 72.2159C322.453 79.5738 326.959 87.5211 331.311 95.6082C331.591 96.1238 331.871 96.6393 332.158 97.1696C344.764 120.857 350.058 148.447 350 175.065C350 175.723 350 176.389 350 177.061C349.97 188.441 349.145 199.356 346.782 210.515C346.62 211.281 346.458 212.047 346.288 212.835C339.727 242.893 325.531 270.918 304.375 293.323C302.851 294.944 301.4 296.601 299.972 298.302C288.168 311.832 271.991 322.291 256.203 330.57C255.644 330.864 255.077 331.159 254.495 331.468C229.901 344.21 203.282 350.058 175.713 350C174.999 350 174.292 350 173.556 350C161.848 349.97 150.596 349.285 139.124 346.781C138.395 346.626 137.673 346.464 136.922 346.302C121.996 342.944 107.667 337.861 94.2066 330.577C93.6715 330.292 93.1315 330.008 92.5866 329.723C79.752 322.932 68.3828 314.712 57.6616 304.902C56.1447 303.524 54.591 302.206 53.0226 300.887C45.0258 293.868 38.6122 285.369 32.3606 276.81C32.0366 276.376 31.72 275.941 31.3886 275.492C14.7619 252.755 5.04207 225.054 1.43396 197.265C1.36769 196.764 1.29405 196.27 1.22042 195.755C-4.25802 150.465 8.92263 104.564 36.44 68.4596C45.4234 57.058 55.3715 46.2236 66.969 37.4368C67.3593 37.1348 67.7496 36.8328 68.1472 36.5235C84.634 23.7446 103.043 14.2139 122.932 7.97542C123.476 7.79865 124.029 7.62925 124.588 7.45248C178.496 -9.36995 240.357 2.88597 284.192 38.1733L284.185 38.1586ZM143.542 33.0028C144.661 41.8412 146.723 50.4439 148.733 59.1056C149.116 60.7775 149.499 62.4421 149.882 64.114C150.707 67.7083 151.531 71.3026 152.363 74.8969C153.689 80.6271 155.007 86.3647 156.318 92.1023C156.428 92.5884 156.539 93.0745 156.656 93.5827C157.113 95.5787 157.569 97.5747 158.033 99.5707C158.622 102.119 159.204 104.675 159.793 107.223C163.519 123.434 167.216 139.646 170.897 155.864C171.023 156.409 171.148 156.954 171.273 157.514C173.46 167.148 175.647 176.782 177.834 186.415C178.298 188.448 178.754 190.488 179.218 192.521C179.446 193.523 179.675 194.517 179.896 195.519C181.692 203.429 183.489 211.332 185.286 219.243C186.383 224.052 187.465 228.854 188.548 233.664C189.166 236.419 189.792 239.166 190.418 241.913C190.698 243.151 190.978 244.395 191.257 245.633C191.626 247.29 192.001 248.94 192.384 250.597C192.59 251.503 192.796 252.416 193.003 253.352C193.307 254.795 194.001 255.983 195.086 256.916C197.457 245.994 199.828 235.063 202.192 224.141C203.289 219.066 204.394 213.984 205.498 208.909C206.456 204.483 207.42 200.063 208.377 195.637C208.908 193.199 209.43 190.768 209.961 188.33C212.155 178.225 214.335 168.113 216.455 157.993C216.625 157.175 216.801 156.357 216.978 155.51C217.781 151.695 218.576 147.88 219.364 144.065C219.644 142.739 219.923 141.406 220.196 140.08C220.321 139.484 220.439 138.88 220.564 138.268C221.109 135.698 221.595 133.93 223.068 131.713C224.123 131.526 225.318 131.428 226.654 131.418C227.412 131.411 228.171 131.396 228.951 131.389C229.783 131.389 230.623 131.389 231.484 131.389C232.36 131.382 233.237 131.374 234.142 131.367C236.55 131.345 238.958 131.337 241.366 131.337C243.877 131.337 246.395 131.308 248.906 131.293C253.67 131.264 258.427 131.242 263.191 131.22C268.611 131.197 274.03 131.168 279.45 131.131C290.598 131.065 301.754 131.013 312.902 130.969C313.587 128.539 313.624 127.375 312.681 125.003C312.453 124.421 312.225 123.84 311.982 123.236C311.724 122.61 311.466 121.991 311.194 121.343C310.929 120.695 310.664 120.039 310.384 119.369C301.85 99.011 288.897 79.456 271.659 65.4103C270.886 64.7548 270.106 64.0993 269.332 63.4438C262.19 57.4926 254.613 52.4694 246.623 47.7335C246.145 47.4463 245.666 47.1664 245.173 46.8718C216.926 30.285 175.021 22.2936 143.535 33.0028H143.542ZM72.8525 71.3026C72.3517 71.774 71.8584 72.238 71.3429 72.7241C67.5655 76.3699 64.3182 80.4503 61.0709 84.5602C60.6978 85.0267 60.3222 85.498 59.9443 85.9743C49.1936 99.3891 41.4693 114.139 36.7713 130.225C40.3721 130.314 43.9728 130.38 47.581 130.424C48.8033 130.446 50.033 130.468 51.2553 130.498C53.0226 130.542 54.7824 130.564 56.5497 130.579C57.0946 130.601 57.6395 130.616 58.1991 130.638C60.9899 130.638 62.3668 130.35 64.6127 128.649C66.3063 126.432 67.4697 124.348 68.6184 121.814C68.832 121.35 69.0455 120.886 69.2664 120.407C69.7303 119.398 70.1942 118.382 70.6508 117.365C71.9173 114.559 73.2206 111.768 74.5166 108.976C74.789 108.38 75.0689 107.783 75.356 107.164C78.7874 99.7696 82.3808 92.4632 85.9668 85.1494C86.6295 83.7868 87.2996 82.4242 87.9623 81.069C89.2289 78.4838 90.4954 75.8985 91.7545 73.3133C93.9857 68.7468 96.2242 64.1803 98.4332 59.6064C98.7572 58.9509 99.0738 58.2954 99.4052 57.6178C100.745 54.8263 101.924 52.3147 102.299 49.1992C92.9916 49.1992 79.0967 65.3146 72.8451 71.2952L72.8525 71.3026ZM122.188 74.9852C121.989 75.4051 121.79 75.8175 121.584 76.2447C117.667 84.4497 113.742 92.6547 109.81 100.852C109.449 101.611 109.081 102.37 108.705 103.15C106.725 107.282 104.736 111.407 102.734 115.524C101.872 117.306 101.003 119.096 100.142 120.879C99.928 121.321 99.7145 121.763 99.4936 122.212C97.0415 127.279 94.6189 132.361 92.2626 137.48C92.0466 137.952 91.8282 138.428 91.6073 138.909C90.569 141.163 89.5381 143.424 88.5072 145.685C85.336 152.613 82.8177 156.544 80.9523 157.477C79.3691 157.565 77.7786 157.61 76.1881 157.632C75.6972 157.637 75.2039 157.644 74.7081 157.654C73.0881 157.676 71.4755 157.698 69.8555 157.713C68.7363 157.727 67.617 157.742 66.4904 157.757C63.5376 157.801 60.5849 157.831 57.6395 157.867C54.6278 157.904 51.6161 157.948 48.6045 157.985C42.699 158.066 36.7861 158.14 30.8806 158.214C29.5036 161.41 29.1722 164.143 29.1575 167.597C29.1575 168.149 29.1428 168.702 29.1354 169.269C29.1207 171.059 29.1207 172.856 29.128 174.646C29.128 175.257 29.128 175.876 29.128 176.502C29.1649 186.857 29.9307 196.72 32.3459 206.817C32.5226 207.561 32.692 208.305 32.8761 209.071C37.574 228.619 45.7033 246.914 58.1181 262.794C58.6237 263.437 59.1318 264.09 59.6424 264.753C84.4794 295.798 119.125 316.333 158.887 320.752C165.323 321.4 171.67 321.812 178.136 321.724C178.953 318.697 178.732 316.59 178.025 313.556C177.819 312.643 177.605 311.729 177.392 310.786C177.149 309.77 176.906 308.746 176.663 307.73C176.405 306.632 176.155 305.535 175.905 304.438C175.345 302.022 174.785 299.613 174.218 297.205C173.283 293.228 172.363 289.25 171.442 285.266C171.28 284.566 171.118 283.874 170.956 283.152C170.618 281.701 170.286 280.25 169.947 278.799C169.417 276.508 168.887 274.225 168.357 271.934C165.419 259.244 162.518 246.539 159.631 233.833C159.521 233.333 159.403 232.839 159.285 232.324C158.004 226.674 156.723 221.033 155.441 215.383C154.02 209.115 152.599 202.855 151.178 196.587C151.06 196.071 150.942 195.556 150.824 195.018C150.235 192.411 149.639 189.803 149.05 187.204C148.461 184.611 147.872 182.018 147.283 179.426C142.739 159.421 138.189 139.425 133.638 119.428C133.093 117.034 132.548 114.648 132.003 112.254C131.157 108.549 130.317 104.837 129.47 101.132C129.168 99.7991 128.859 98.4659 128.557 97.1255C128.417 96.5068 128.277 95.8807 128.13 95.2399C127.99 94.636 127.858 94.0394 127.718 93.4207C127.46 92.2791 127.195 91.1301 126.93 89.9884C126.348 87.4474 125.774 84.899 125.229 82.3432C125.038 81.4692 124.846 80.5854 124.655 79.6917C124.493 78.9331 124.338 78.1818 124.169 77.4011C123.997 76.8462 123.825 76.2865 123.653 75.7218C123.167 75.4812 122.676 75.2357 122.18 74.9852H122.188ZM245.195 160.018C244.031 162.839 243.406 165.697 242.794 168.68C242.647 169.372 242.497 170.072 242.345 170.779C241.852 173.099 241.366 175.419 240.887 177.739C240.534 179.396 240.188 181.046 239.834 182.703C239.083 186.246 238.332 189.796 237.588 193.346C235.821 201.757 234.032 210.161 232.25 218.572C231.742 220.974 231.234 223.367 230.726 225.768C227.913 239.041 225.056 252.298 222.155 265.549C221.97 266.374 221.794 267.206 221.602 268.06C219.872 275.963 218.134 283.866 216.396 291.762C215.763 294.634 215.137 297.507 214.504 300.379C214.069 302.338 213.642 304.298 213.208 306.257C212.95 307.421 212.7 308.584 212.442 309.748C212.324 310.273 212.206 310.806 212.089 311.346C211.701 313.075 211.438 314.818 211.301 316.576C216.404 315.707 221.116 314.395 225.939 312.525C226.602 312.269 227.272 312.009 227.95 311.744C239.326 307.244 250.025 301.712 259.907 294.48C260.334 294.17 260.761 293.854 261.196 293.537C291.791 270.866 313.263 237.236 319.551 199.467C319.684 198.686 319.809 197.905 319.949 197.103C320.995 190.179 321.26 183.41 321.223 176.413C321.216 174.624 321.223 172.834 321.23 171.044C321.23 169.895 321.23 168.746 321.23 167.597C321.23 167.067 321.233 166.531 321.238 165.991C321.208 163.207 320.899 161.373 319.559 158.95C310.089 158.884 300.627 158.832 291.158 158.795C286.762 158.781 282.366 158.759 277.97 158.729C273.728 158.7 269.487 158.678 265.253 158.67C263.633 158.67 262.013 158.655 260.393 158.641C258.133 158.619 255.865 158.619 253.604 158.619C252.932 158.609 252.252 158.599 251.564 158.589C249.296 158.56 247.183 159.038 245.224 160.025L245.195 160.018Z" fill="white"/>
</svg>
