<svg width="305" height="350" viewBox="0 0 305 350" fill="none" xmlns="http://www.w3.org/2000/svg">
<path d="M211.225 72.9432L245.205 0L120.92 0.0318182C73.9242 0.0477273 31.2034 27.3159 11.337 69.9364C-8.52948 112.573 -1.91793 162.861 28.2791 198.895L93.7589 277.057L59.7793 350L184.08 349.968C231.076 349.952 273.797 322.7 293.663 280.064C313.529 237.427 306.918 187.139 276.721 151.105L211.225 72.9432ZM256.902 262.914C253.04 271.186 244.744 276.484 235.621 276.484L116.423 276.452L142.408 220.675L51.3718 112.127C45.5073 105.127 44.2199 95.375 48.0819 87.1023C51.944 78.8295 60.2402 73.5318 69.3629 73.5318L188.562 73.5636L162.576 129.341L253.612 237.889C259.477 244.873 260.764 254.641 256.902 262.914Z" fill="white"/>
</svg>
