<svg width="540" height="180" viewBox="0 0 540 180" fill="none" xmlns="http://www.w3.org/2000/svg">
<path d="M245.628 143.647C239.128 143.647 233 142.489 227.243 140.173C221.579 137.765 216.657 134.385 212.479 130.031C208.393 125.678 205.329 120.537 203.286 114.61L220.975 106.69C223.575 112.34 227.15 116.786 231.7 120.028C236.343 123.27 241.45 124.891 247.021 124.891C249.993 124.891 252.546 124.428 254.682 123.501C256.817 122.575 258.489 121.325 259.696 119.75C260.903 118.083 261.507 116.138 261.507 113.915C261.507 111.507 260.764 109.469 259.278 107.802C257.792 106.042 255.471 104.653 252.314 103.634L231.979 96.965C223.714 94.279 217.493 90.4814 213.315 85.5724C209.136 80.5708 207.047 74.5967 207.047 67.65C207.047 61.5369 208.533 56.1648 211.504 51.5336C214.568 46.9025 218.793 43.2902 224.179 40.6968C229.657 38.1034 235.925 36.8066 242.982 36.8066C249.203 36.8066 254.96 37.8718 260.253 40.0021C265.546 42.1324 270.096 45.1427 273.903 49.0328C277.803 52.923 280.728 57.6004 282.678 63.0651L265.128 70.9844C263.178 66.168 260.253 62.4168 256.353 59.7307C252.453 56.9521 247.996 55.5627 242.982 55.5627C240.103 55.5627 237.55 56.0258 235.321 56.952C233.093 57.8783 231.375 59.2213 230.168 60.9811C228.961 62.6483 228.357 64.5934 228.357 66.8164C228.357 69.2245 229.147 71.3549 230.725 73.2073C232.304 74.9671 234.671 76.3565 237.829 77.3753L257.746 83.7663C266.103 86.4523 272.324 90.2036 276.41 95.0199C280.588 99.8363 282.678 105.718 282.678 112.665C282.678 118.685 281.099 124.057 277.942 128.781C274.785 133.412 270.421 137.071 264.849 139.757C259.371 142.35 252.964 143.647 245.628 143.647Z" fill="white"/>
<path d="M333.162 142.813C323.97 142.813 316.82 140.359 311.713 135.45C306.699 130.448 304.192 123.501 304.192 114.61V84.1831H291.377V66.1217H292.074C295.974 66.1217 304.192 66.1217 304.192 66.1217C304.192 66.1217 304.192 58.3414 304.192 54.4512V48.8939H325.084V66.1217H342.912V84.1831H325.084V113.22C325.084 115.814 325.548 117.99 326.477 119.75C327.405 121.417 328.845 122.668 330.795 123.501C332.745 124.335 335.159 124.752 338.037 124.752C338.687 124.752 339.43 124.705 340.266 124.613C341.102 124.52 341.984 124.428 342.912 124.335V141.98C341.519 142.165 339.941 142.35 338.177 142.535C336.412 142.721 334.741 142.813 333.162 142.813Z" fill="white"/>
<path d="M378.694 143.647C373.215 143.647 368.48 142.767 364.487 141.007C360.494 139.247 357.43 136.746 355.294 133.505C353.159 130.17 352.091 126.234 352.091 121.695C352.091 117.435 353.066 113.683 355.016 110.442C356.966 107.107 359.937 104.328 363.93 102.106C368.016 99.8826 373.076 98.308 379.112 97.3818L402.372 93.6306V108.913L382.872 112.387C379.901 112.942 377.626 113.915 376.048 115.304C374.469 116.601 373.68 118.5 373.68 121.001C373.68 123.316 374.562 125.122 376.326 126.419C378.09 127.716 380.273 128.364 382.872 128.364C386.308 128.364 389.326 127.623 391.926 126.141C394.526 124.659 396.522 122.668 397.915 120.167C399.401 117.574 400.144 114.749 400.144 111.692V91.9634C400.144 89.0921 398.983 86.6839 396.662 84.7388C394.433 82.7938 391.369 81.8212 387.469 81.8212C383.755 81.8212 380.458 82.8401 377.58 84.8778C374.794 86.9155 372.751 89.6015 371.451 92.9359L354.737 85.0167C356.223 80.7561 358.591 77.0975 361.841 74.0409C365.091 70.9844 368.991 68.6225 373.54 66.9553C378.09 65.2881 383.058 64.4545 388.444 64.4545C394.851 64.4545 400.515 65.6123 405.436 67.9278C410.358 70.2434 414.165 73.4852 416.858 77.6532C419.643 81.7286 421.036 86.4987 421.036 91.9634V141.98H401.536V129.753L406.272 128.92C404.044 132.254 401.583 135.033 398.89 137.256C396.197 139.386 393.179 140.961 389.837 141.98C386.494 143.091 382.78 143.647 378.694 143.647Z" fill="white"/>
<path d="M436.358 141.98V66.1217H455.858V81.1265L454.744 77.7921C456.508 73.2536 459.34 69.9192 463.24 67.7889C467.233 65.566 471.876 64.4545 477.168 64.4545C482.925 64.4545 487.94 65.6586 492.211 68.0668C496.575 70.4749 499.964 73.8557 502.379 78.2089C504.793 82.4696 506 87.4712 506 93.2138V141.98H485.107V97.6597C485.107 94.6958 484.504 92.1486 483.297 90.0183C482.183 87.888 480.558 86.2208 478.422 85.0167C476.379 83.8126 473.965 83.2106 471.179 83.2106C468.486 83.2106 466.072 83.8126 463.936 85.0167C461.801 86.2208 460.129 87.888 458.922 90.0183C457.808 92.1486 457.251 94.6958 457.251 97.6597V141.98H436.358Z" fill="white"/>
<path fill-rule="evenodd" clip-rule="evenodd" d="M172 90.5C172 53.2208 141.779 23 104.5 23C67.2208 23 37 53.2208 37 90.5C37 127.779 67.2208 158 104.5 158C141.779 158 172 127.779 172 90.5ZM80.5653 80.4243C79.8939 75.1219 81.3931 69.8827 84.7843 65.6752C88.3172 61.2892 93.377 58.7233 98.6731 58.1292V53.5141C98.6731 51.1125 100.681 49.166 103.158 49.166C105.635 49.166 107.642 51.1125 107.642 53.5141V59.0377C109.79 59.7392 111.853 60.7978 113.739 62.2261L121.425 68.0483C123.377 69.5272 123.723 72.2574 122.198 74.1502C120.672 76.043 117.855 76.378 115.904 74.9007L108.218 69.0785C103.151 65.2423 95.81 66.116 91.8517 71.0266C89.9337 73.406 89.088 76.3669 89.4677 79.3641C89.8474 82.3613 91.4069 85.0362 93.861 86.8943L104.815 95.1923C106.767 96.6712 107.113 99.403 105.589 101.296C104.704 102.394 103.386 102.966 102.053 102.966C101.088 102.966 100.115 102.666 99.2956 102.045L88.3416 93.7467C83.9972 90.4571 81.2367 85.7267 80.5653 80.4243ZM109.06 79.3286L119.705 87.626L119.707 87.6291C128.416 94.4177 129.964 107.011 123.16 115.7C119.726 120.085 114.811 122.651 109.664 123.244V127.858C109.664 130.26 107.713 132.206 105.306 132.206C102.899 132.206 100.949 130.26 100.949 127.858V122.334C98.8618 121.632 96.8556 120.574 95.0252 119.145L87.558 113.324C85.6611 111.845 85.3238 109.113 86.8059 107.221C88.2879 105.328 91.0256 104.993 92.9225 106.472L100.391 112.294C102.458 113.904 104.915 114.684 107.353 114.684C110.725 114.686 114.061 113.194 116.293 110.344C118.155 107.965 118.979 105.004 118.61 102.007C118.241 99.0103 116.724 96.3357 114.339 94.4778L103.696 86.1804C101.799 84.7017 101.463 81.9701 102.945 80.0775C104.426 78.1848 107.163 77.8499 109.06 79.3286Z" fill="white"/>
</svg>
